%
M48
M72
T01C0.01969
T02C0.03150
T03C0.03543
T04C0.04921
T05C0.12598
%
T01
X42688Y171435
X73313Y129872
X88625Y122685
X93625Y112060
X96125Y93310
X88625Y93310
X79875Y73310
X71750Y64560
X29875Y76435
X23312Y76435
X23000Y94560
X45500Y26435
X65187Y18310
X115500Y20185
X127062Y18310
X139875Y18310
X154250Y27060
X116125Y59560
X148000Y150185
X139250Y150185
X159875Y172060
T02
X23000Y57340
X23000Y45529
T03
X59161Y26435
X72941Y26435
X86720Y26435
X100500Y26435
X114280Y26435
X128059Y26435
X141839Y26435
X134949Y40214
X121169Y40214
X107390Y40214
X93610Y40214
X79831Y40214
X66051Y40214
T04
X171420Y97144
X171420Y128640
T05
X30500Y161435
X30500Y21435
X30500Y21435
X170500Y21435
X170500Y161435
M30
