G75*
%MOIN*%
%OFA0B0*%
%FSLAX25Y25*%
%IPPOS*%
%LPD*%
%AMOC8*
5,1,8,0,0,1.08239X$1,22.5*
%
%ADD10C,0.00000*%
%ADD11C,0.06600*%
%ADD12C,0.01600*%
%ADD13C,0.03200*%
D10*
X0015500Y0006435D02*
X0015500Y0176435D01*
X0185500Y0176435D01*
X0185500Y0006435D01*
X0015500Y0006435D01*
X0024201Y0021435D02*
X0024203Y0021593D01*
X0024209Y0021751D01*
X0024219Y0021909D01*
X0024233Y0022067D01*
X0024251Y0022224D01*
X0024272Y0022381D01*
X0024298Y0022537D01*
X0024328Y0022693D01*
X0024361Y0022848D01*
X0024399Y0023001D01*
X0024440Y0023154D01*
X0024485Y0023306D01*
X0024534Y0023457D01*
X0024587Y0023606D01*
X0024643Y0023754D01*
X0024703Y0023900D01*
X0024767Y0024045D01*
X0024835Y0024188D01*
X0024906Y0024330D01*
X0024980Y0024470D01*
X0025058Y0024607D01*
X0025140Y0024743D01*
X0025224Y0024877D01*
X0025313Y0025008D01*
X0025404Y0025137D01*
X0025499Y0025264D01*
X0025596Y0025389D01*
X0025697Y0025511D01*
X0025801Y0025630D01*
X0025908Y0025747D01*
X0026018Y0025861D01*
X0026131Y0025972D01*
X0026246Y0026081D01*
X0026364Y0026186D01*
X0026485Y0026288D01*
X0026608Y0026388D01*
X0026734Y0026484D01*
X0026862Y0026577D01*
X0026992Y0026667D01*
X0027125Y0026753D01*
X0027260Y0026837D01*
X0027396Y0026916D01*
X0027535Y0026993D01*
X0027676Y0027065D01*
X0027818Y0027135D01*
X0027962Y0027200D01*
X0028108Y0027262D01*
X0028255Y0027320D01*
X0028404Y0027375D01*
X0028554Y0027426D01*
X0028705Y0027473D01*
X0028857Y0027516D01*
X0029010Y0027555D01*
X0029165Y0027591D01*
X0029320Y0027622D01*
X0029476Y0027650D01*
X0029632Y0027674D01*
X0029789Y0027694D01*
X0029947Y0027710D01*
X0030104Y0027722D01*
X0030263Y0027730D01*
X0030421Y0027734D01*
X0030579Y0027734D01*
X0030737Y0027730D01*
X0030896Y0027722D01*
X0031053Y0027710D01*
X0031211Y0027694D01*
X0031368Y0027674D01*
X0031524Y0027650D01*
X0031680Y0027622D01*
X0031835Y0027591D01*
X0031990Y0027555D01*
X0032143Y0027516D01*
X0032295Y0027473D01*
X0032446Y0027426D01*
X0032596Y0027375D01*
X0032745Y0027320D01*
X0032892Y0027262D01*
X0033038Y0027200D01*
X0033182Y0027135D01*
X0033324Y0027065D01*
X0033465Y0026993D01*
X0033604Y0026916D01*
X0033740Y0026837D01*
X0033875Y0026753D01*
X0034008Y0026667D01*
X0034138Y0026577D01*
X0034266Y0026484D01*
X0034392Y0026388D01*
X0034515Y0026288D01*
X0034636Y0026186D01*
X0034754Y0026081D01*
X0034869Y0025972D01*
X0034982Y0025861D01*
X0035092Y0025747D01*
X0035199Y0025630D01*
X0035303Y0025511D01*
X0035404Y0025389D01*
X0035501Y0025264D01*
X0035596Y0025137D01*
X0035687Y0025008D01*
X0035776Y0024877D01*
X0035860Y0024743D01*
X0035942Y0024607D01*
X0036020Y0024470D01*
X0036094Y0024330D01*
X0036165Y0024188D01*
X0036233Y0024045D01*
X0036297Y0023900D01*
X0036357Y0023754D01*
X0036413Y0023606D01*
X0036466Y0023457D01*
X0036515Y0023306D01*
X0036560Y0023154D01*
X0036601Y0023001D01*
X0036639Y0022848D01*
X0036672Y0022693D01*
X0036702Y0022537D01*
X0036728Y0022381D01*
X0036749Y0022224D01*
X0036767Y0022067D01*
X0036781Y0021909D01*
X0036791Y0021751D01*
X0036797Y0021593D01*
X0036799Y0021435D01*
X0036797Y0021277D01*
X0036791Y0021119D01*
X0036781Y0020961D01*
X0036767Y0020803D01*
X0036749Y0020646D01*
X0036728Y0020489D01*
X0036702Y0020333D01*
X0036672Y0020177D01*
X0036639Y0020022D01*
X0036601Y0019869D01*
X0036560Y0019716D01*
X0036515Y0019564D01*
X0036466Y0019413D01*
X0036413Y0019264D01*
X0036357Y0019116D01*
X0036297Y0018970D01*
X0036233Y0018825D01*
X0036165Y0018682D01*
X0036094Y0018540D01*
X0036020Y0018400D01*
X0035942Y0018263D01*
X0035860Y0018127D01*
X0035776Y0017993D01*
X0035687Y0017862D01*
X0035596Y0017733D01*
X0035501Y0017606D01*
X0035404Y0017481D01*
X0035303Y0017359D01*
X0035199Y0017240D01*
X0035092Y0017123D01*
X0034982Y0017009D01*
X0034869Y0016898D01*
X0034754Y0016789D01*
X0034636Y0016684D01*
X0034515Y0016582D01*
X0034392Y0016482D01*
X0034266Y0016386D01*
X0034138Y0016293D01*
X0034008Y0016203D01*
X0033875Y0016117D01*
X0033740Y0016033D01*
X0033604Y0015954D01*
X0033465Y0015877D01*
X0033324Y0015805D01*
X0033182Y0015735D01*
X0033038Y0015670D01*
X0032892Y0015608D01*
X0032745Y0015550D01*
X0032596Y0015495D01*
X0032446Y0015444D01*
X0032295Y0015397D01*
X0032143Y0015354D01*
X0031990Y0015315D01*
X0031835Y0015279D01*
X0031680Y0015248D01*
X0031524Y0015220D01*
X0031368Y0015196D01*
X0031211Y0015176D01*
X0031053Y0015160D01*
X0030896Y0015148D01*
X0030737Y0015140D01*
X0030579Y0015136D01*
X0030421Y0015136D01*
X0030263Y0015140D01*
X0030104Y0015148D01*
X0029947Y0015160D01*
X0029789Y0015176D01*
X0029632Y0015196D01*
X0029476Y0015220D01*
X0029320Y0015248D01*
X0029165Y0015279D01*
X0029010Y0015315D01*
X0028857Y0015354D01*
X0028705Y0015397D01*
X0028554Y0015444D01*
X0028404Y0015495D01*
X0028255Y0015550D01*
X0028108Y0015608D01*
X0027962Y0015670D01*
X0027818Y0015735D01*
X0027676Y0015805D01*
X0027535Y0015877D01*
X0027396Y0015954D01*
X0027260Y0016033D01*
X0027125Y0016117D01*
X0026992Y0016203D01*
X0026862Y0016293D01*
X0026734Y0016386D01*
X0026608Y0016482D01*
X0026485Y0016582D01*
X0026364Y0016684D01*
X0026246Y0016789D01*
X0026131Y0016898D01*
X0026018Y0017009D01*
X0025908Y0017123D01*
X0025801Y0017240D01*
X0025697Y0017359D01*
X0025596Y0017481D01*
X0025499Y0017606D01*
X0025404Y0017733D01*
X0025313Y0017862D01*
X0025224Y0017993D01*
X0025140Y0018127D01*
X0025058Y0018263D01*
X0024980Y0018400D01*
X0024906Y0018540D01*
X0024835Y0018682D01*
X0024767Y0018825D01*
X0024703Y0018970D01*
X0024643Y0019116D01*
X0024587Y0019264D01*
X0024534Y0019413D01*
X0024485Y0019564D01*
X0024440Y0019716D01*
X0024399Y0019869D01*
X0024361Y0020022D01*
X0024328Y0020177D01*
X0024298Y0020333D01*
X0024272Y0020489D01*
X0024251Y0020646D01*
X0024233Y0020803D01*
X0024219Y0020961D01*
X0024209Y0021119D01*
X0024203Y0021277D01*
X0024201Y0021435D01*
X0024203Y0021593D01*
X0024209Y0021751D01*
X0024219Y0021909D01*
X0024233Y0022067D01*
X0024251Y0022224D01*
X0024272Y0022381D01*
X0024298Y0022537D01*
X0024328Y0022693D01*
X0024361Y0022848D01*
X0024399Y0023001D01*
X0024440Y0023154D01*
X0024485Y0023306D01*
X0024534Y0023457D01*
X0024587Y0023606D01*
X0024643Y0023754D01*
X0024703Y0023900D01*
X0024767Y0024045D01*
X0024835Y0024188D01*
X0024906Y0024330D01*
X0024980Y0024470D01*
X0025058Y0024607D01*
X0025140Y0024743D01*
X0025224Y0024877D01*
X0025313Y0025008D01*
X0025404Y0025137D01*
X0025499Y0025264D01*
X0025596Y0025389D01*
X0025697Y0025511D01*
X0025801Y0025630D01*
X0025908Y0025747D01*
X0026018Y0025861D01*
X0026131Y0025972D01*
X0026246Y0026081D01*
X0026364Y0026186D01*
X0026485Y0026288D01*
X0026608Y0026388D01*
X0026734Y0026484D01*
X0026862Y0026577D01*
X0026992Y0026667D01*
X0027125Y0026753D01*
X0027260Y0026837D01*
X0027396Y0026916D01*
X0027535Y0026993D01*
X0027676Y0027065D01*
X0027818Y0027135D01*
X0027962Y0027200D01*
X0028108Y0027262D01*
X0028255Y0027320D01*
X0028404Y0027375D01*
X0028554Y0027426D01*
X0028705Y0027473D01*
X0028857Y0027516D01*
X0029010Y0027555D01*
X0029165Y0027591D01*
X0029320Y0027622D01*
X0029476Y0027650D01*
X0029632Y0027674D01*
X0029789Y0027694D01*
X0029947Y0027710D01*
X0030104Y0027722D01*
X0030263Y0027730D01*
X0030421Y0027734D01*
X0030579Y0027734D01*
X0030737Y0027730D01*
X0030896Y0027722D01*
X0031053Y0027710D01*
X0031211Y0027694D01*
X0031368Y0027674D01*
X0031524Y0027650D01*
X0031680Y0027622D01*
X0031835Y0027591D01*
X0031990Y0027555D01*
X0032143Y0027516D01*
X0032295Y0027473D01*
X0032446Y0027426D01*
X0032596Y0027375D01*
X0032745Y0027320D01*
X0032892Y0027262D01*
X0033038Y0027200D01*
X0033182Y0027135D01*
X0033324Y0027065D01*
X0033465Y0026993D01*
X0033604Y0026916D01*
X0033740Y0026837D01*
X0033875Y0026753D01*
X0034008Y0026667D01*
X0034138Y0026577D01*
X0034266Y0026484D01*
X0034392Y0026388D01*
X0034515Y0026288D01*
X0034636Y0026186D01*
X0034754Y0026081D01*
X0034869Y0025972D01*
X0034982Y0025861D01*
X0035092Y0025747D01*
X0035199Y0025630D01*
X0035303Y0025511D01*
X0035404Y0025389D01*
X0035501Y0025264D01*
X0035596Y0025137D01*
X0035687Y0025008D01*
X0035776Y0024877D01*
X0035860Y0024743D01*
X0035942Y0024607D01*
X0036020Y0024470D01*
X0036094Y0024330D01*
X0036165Y0024188D01*
X0036233Y0024045D01*
X0036297Y0023900D01*
X0036357Y0023754D01*
X0036413Y0023606D01*
X0036466Y0023457D01*
X0036515Y0023306D01*
X0036560Y0023154D01*
X0036601Y0023001D01*
X0036639Y0022848D01*
X0036672Y0022693D01*
X0036702Y0022537D01*
X0036728Y0022381D01*
X0036749Y0022224D01*
X0036767Y0022067D01*
X0036781Y0021909D01*
X0036791Y0021751D01*
X0036797Y0021593D01*
X0036799Y0021435D01*
X0036797Y0021277D01*
X0036791Y0021119D01*
X0036781Y0020961D01*
X0036767Y0020803D01*
X0036749Y0020646D01*
X0036728Y0020489D01*
X0036702Y0020333D01*
X0036672Y0020177D01*
X0036639Y0020022D01*
X0036601Y0019869D01*
X0036560Y0019716D01*
X0036515Y0019564D01*
X0036466Y0019413D01*
X0036413Y0019264D01*
X0036357Y0019116D01*
X0036297Y0018970D01*
X0036233Y0018825D01*
X0036165Y0018682D01*
X0036094Y0018540D01*
X0036020Y0018400D01*
X0035942Y0018263D01*
X0035860Y0018127D01*
X0035776Y0017993D01*
X0035687Y0017862D01*
X0035596Y0017733D01*
X0035501Y0017606D01*
X0035404Y0017481D01*
X0035303Y0017359D01*
X0035199Y0017240D01*
X0035092Y0017123D01*
X0034982Y0017009D01*
X0034869Y0016898D01*
X0034754Y0016789D01*
X0034636Y0016684D01*
X0034515Y0016582D01*
X0034392Y0016482D01*
X0034266Y0016386D01*
X0034138Y0016293D01*
X0034008Y0016203D01*
X0033875Y0016117D01*
X0033740Y0016033D01*
X0033604Y0015954D01*
X0033465Y0015877D01*
X0033324Y0015805D01*
X0033182Y0015735D01*
X0033038Y0015670D01*
X0032892Y0015608D01*
X0032745Y0015550D01*
X0032596Y0015495D01*
X0032446Y0015444D01*
X0032295Y0015397D01*
X0032143Y0015354D01*
X0031990Y0015315D01*
X0031835Y0015279D01*
X0031680Y0015248D01*
X0031524Y0015220D01*
X0031368Y0015196D01*
X0031211Y0015176D01*
X0031053Y0015160D01*
X0030896Y0015148D01*
X0030737Y0015140D01*
X0030579Y0015136D01*
X0030421Y0015136D01*
X0030263Y0015140D01*
X0030104Y0015148D01*
X0029947Y0015160D01*
X0029789Y0015176D01*
X0029632Y0015196D01*
X0029476Y0015220D01*
X0029320Y0015248D01*
X0029165Y0015279D01*
X0029010Y0015315D01*
X0028857Y0015354D01*
X0028705Y0015397D01*
X0028554Y0015444D01*
X0028404Y0015495D01*
X0028255Y0015550D01*
X0028108Y0015608D01*
X0027962Y0015670D01*
X0027818Y0015735D01*
X0027676Y0015805D01*
X0027535Y0015877D01*
X0027396Y0015954D01*
X0027260Y0016033D01*
X0027125Y0016117D01*
X0026992Y0016203D01*
X0026862Y0016293D01*
X0026734Y0016386D01*
X0026608Y0016482D01*
X0026485Y0016582D01*
X0026364Y0016684D01*
X0026246Y0016789D01*
X0026131Y0016898D01*
X0026018Y0017009D01*
X0025908Y0017123D01*
X0025801Y0017240D01*
X0025697Y0017359D01*
X0025596Y0017481D01*
X0025499Y0017606D01*
X0025404Y0017733D01*
X0025313Y0017862D01*
X0025224Y0017993D01*
X0025140Y0018127D01*
X0025058Y0018263D01*
X0024980Y0018400D01*
X0024906Y0018540D01*
X0024835Y0018682D01*
X0024767Y0018825D01*
X0024703Y0018970D01*
X0024643Y0019116D01*
X0024587Y0019264D01*
X0024534Y0019413D01*
X0024485Y0019564D01*
X0024440Y0019716D01*
X0024399Y0019869D01*
X0024361Y0020022D01*
X0024328Y0020177D01*
X0024298Y0020333D01*
X0024272Y0020489D01*
X0024251Y0020646D01*
X0024233Y0020803D01*
X0024219Y0020961D01*
X0024209Y0021119D01*
X0024203Y0021277D01*
X0024201Y0021435D01*
X0021425Y0045529D02*
X0021427Y0045608D01*
X0021433Y0045687D01*
X0021443Y0045766D01*
X0021457Y0045844D01*
X0021474Y0045921D01*
X0021496Y0045997D01*
X0021521Y0046072D01*
X0021551Y0046145D01*
X0021583Y0046217D01*
X0021620Y0046288D01*
X0021660Y0046356D01*
X0021703Y0046422D01*
X0021749Y0046486D01*
X0021799Y0046548D01*
X0021852Y0046607D01*
X0021907Y0046663D01*
X0021966Y0046717D01*
X0022027Y0046767D01*
X0022090Y0046815D01*
X0022156Y0046859D01*
X0022224Y0046900D01*
X0022294Y0046937D01*
X0022365Y0046971D01*
X0022439Y0047001D01*
X0022513Y0047027D01*
X0022589Y0047049D01*
X0022666Y0047068D01*
X0022744Y0047083D01*
X0022822Y0047094D01*
X0022901Y0047101D01*
X0022980Y0047104D01*
X0023059Y0047103D01*
X0023138Y0047098D01*
X0023217Y0047089D01*
X0023295Y0047076D01*
X0023372Y0047059D01*
X0023449Y0047039D01*
X0023524Y0047014D01*
X0023598Y0046986D01*
X0023671Y0046954D01*
X0023741Y0046919D01*
X0023810Y0046880D01*
X0023877Y0046837D01*
X0023942Y0046791D01*
X0024004Y0046743D01*
X0024064Y0046691D01*
X0024121Y0046636D01*
X0024175Y0046578D01*
X0024226Y0046518D01*
X0024274Y0046455D01*
X0024319Y0046390D01*
X0024361Y0046322D01*
X0024399Y0046253D01*
X0024433Y0046182D01*
X0024464Y0046109D01*
X0024492Y0046034D01*
X0024515Y0045959D01*
X0024535Y0045882D01*
X0024551Y0045805D01*
X0024563Y0045726D01*
X0024571Y0045648D01*
X0024575Y0045569D01*
X0024575Y0045489D01*
X0024571Y0045410D01*
X0024563Y0045332D01*
X0024551Y0045253D01*
X0024535Y0045176D01*
X0024515Y0045099D01*
X0024492Y0045024D01*
X0024464Y0044949D01*
X0024433Y0044876D01*
X0024399Y0044805D01*
X0024361Y0044736D01*
X0024319Y0044668D01*
X0024274Y0044603D01*
X0024226Y0044540D01*
X0024175Y0044480D01*
X0024121Y0044422D01*
X0024064Y0044367D01*
X0024004Y0044315D01*
X0023942Y0044267D01*
X0023877Y0044221D01*
X0023810Y0044178D01*
X0023741Y0044139D01*
X0023671Y0044104D01*
X0023598Y0044072D01*
X0023524Y0044044D01*
X0023449Y0044019D01*
X0023372Y0043999D01*
X0023295Y0043982D01*
X0023217Y0043969D01*
X0023138Y0043960D01*
X0023059Y0043955D01*
X0022980Y0043954D01*
X0022901Y0043957D01*
X0022822Y0043964D01*
X0022744Y0043975D01*
X0022666Y0043990D01*
X0022589Y0044009D01*
X0022513Y0044031D01*
X0022439Y0044057D01*
X0022365Y0044087D01*
X0022294Y0044121D01*
X0022224Y0044158D01*
X0022156Y0044199D01*
X0022090Y0044243D01*
X0022027Y0044291D01*
X0021966Y0044341D01*
X0021907Y0044395D01*
X0021852Y0044451D01*
X0021799Y0044510D01*
X0021749Y0044572D01*
X0021703Y0044636D01*
X0021660Y0044702D01*
X0021620Y0044770D01*
X0021583Y0044841D01*
X0021551Y0044913D01*
X0021521Y0044986D01*
X0021496Y0045061D01*
X0021474Y0045137D01*
X0021457Y0045214D01*
X0021443Y0045292D01*
X0021433Y0045371D01*
X0021427Y0045450D01*
X0021425Y0045529D01*
X0021425Y0057340D02*
X0021427Y0057419D01*
X0021433Y0057498D01*
X0021443Y0057577D01*
X0021457Y0057655D01*
X0021474Y0057732D01*
X0021496Y0057808D01*
X0021521Y0057883D01*
X0021551Y0057956D01*
X0021583Y0058028D01*
X0021620Y0058099D01*
X0021660Y0058167D01*
X0021703Y0058233D01*
X0021749Y0058297D01*
X0021799Y0058359D01*
X0021852Y0058418D01*
X0021907Y0058474D01*
X0021966Y0058528D01*
X0022027Y0058578D01*
X0022090Y0058626D01*
X0022156Y0058670D01*
X0022224Y0058711D01*
X0022294Y0058748D01*
X0022365Y0058782D01*
X0022439Y0058812D01*
X0022513Y0058838D01*
X0022589Y0058860D01*
X0022666Y0058879D01*
X0022744Y0058894D01*
X0022822Y0058905D01*
X0022901Y0058912D01*
X0022980Y0058915D01*
X0023059Y0058914D01*
X0023138Y0058909D01*
X0023217Y0058900D01*
X0023295Y0058887D01*
X0023372Y0058870D01*
X0023449Y0058850D01*
X0023524Y0058825D01*
X0023598Y0058797D01*
X0023671Y0058765D01*
X0023741Y0058730D01*
X0023810Y0058691D01*
X0023877Y0058648D01*
X0023942Y0058602D01*
X0024004Y0058554D01*
X0024064Y0058502D01*
X0024121Y0058447D01*
X0024175Y0058389D01*
X0024226Y0058329D01*
X0024274Y0058266D01*
X0024319Y0058201D01*
X0024361Y0058133D01*
X0024399Y0058064D01*
X0024433Y0057993D01*
X0024464Y0057920D01*
X0024492Y0057845D01*
X0024515Y0057770D01*
X0024535Y0057693D01*
X0024551Y0057616D01*
X0024563Y0057537D01*
X0024571Y0057459D01*
X0024575Y0057380D01*
X0024575Y0057300D01*
X0024571Y0057221D01*
X0024563Y0057143D01*
X0024551Y0057064D01*
X0024535Y0056987D01*
X0024515Y0056910D01*
X0024492Y0056835D01*
X0024464Y0056760D01*
X0024433Y0056687D01*
X0024399Y0056616D01*
X0024361Y0056547D01*
X0024319Y0056479D01*
X0024274Y0056414D01*
X0024226Y0056351D01*
X0024175Y0056291D01*
X0024121Y0056233D01*
X0024064Y0056178D01*
X0024004Y0056126D01*
X0023942Y0056078D01*
X0023877Y0056032D01*
X0023810Y0055989D01*
X0023741Y0055950D01*
X0023671Y0055915D01*
X0023598Y0055883D01*
X0023524Y0055855D01*
X0023449Y0055830D01*
X0023372Y0055810D01*
X0023295Y0055793D01*
X0023217Y0055780D01*
X0023138Y0055771D01*
X0023059Y0055766D01*
X0022980Y0055765D01*
X0022901Y0055768D01*
X0022822Y0055775D01*
X0022744Y0055786D01*
X0022666Y0055801D01*
X0022589Y0055820D01*
X0022513Y0055842D01*
X0022439Y0055868D01*
X0022365Y0055898D01*
X0022294Y0055932D01*
X0022224Y0055969D01*
X0022156Y0056010D01*
X0022090Y0056054D01*
X0022027Y0056102D01*
X0021966Y0056152D01*
X0021907Y0056206D01*
X0021852Y0056262D01*
X0021799Y0056321D01*
X0021749Y0056383D01*
X0021703Y0056447D01*
X0021660Y0056513D01*
X0021620Y0056581D01*
X0021583Y0056652D01*
X0021551Y0056724D01*
X0021521Y0056797D01*
X0021496Y0056872D01*
X0021474Y0056948D01*
X0021457Y0057025D01*
X0021443Y0057103D01*
X0021433Y0057182D01*
X0021427Y0057261D01*
X0021425Y0057340D01*
X0024201Y0161435D02*
X0024203Y0161593D01*
X0024209Y0161751D01*
X0024219Y0161909D01*
X0024233Y0162067D01*
X0024251Y0162224D01*
X0024272Y0162381D01*
X0024298Y0162537D01*
X0024328Y0162693D01*
X0024361Y0162848D01*
X0024399Y0163001D01*
X0024440Y0163154D01*
X0024485Y0163306D01*
X0024534Y0163457D01*
X0024587Y0163606D01*
X0024643Y0163754D01*
X0024703Y0163900D01*
X0024767Y0164045D01*
X0024835Y0164188D01*
X0024906Y0164330D01*
X0024980Y0164470D01*
X0025058Y0164607D01*
X0025140Y0164743D01*
X0025224Y0164877D01*
X0025313Y0165008D01*
X0025404Y0165137D01*
X0025499Y0165264D01*
X0025596Y0165389D01*
X0025697Y0165511D01*
X0025801Y0165630D01*
X0025908Y0165747D01*
X0026018Y0165861D01*
X0026131Y0165972D01*
X0026246Y0166081D01*
X0026364Y0166186D01*
X0026485Y0166288D01*
X0026608Y0166388D01*
X0026734Y0166484D01*
X0026862Y0166577D01*
X0026992Y0166667D01*
X0027125Y0166753D01*
X0027260Y0166837D01*
X0027396Y0166916D01*
X0027535Y0166993D01*
X0027676Y0167065D01*
X0027818Y0167135D01*
X0027962Y0167200D01*
X0028108Y0167262D01*
X0028255Y0167320D01*
X0028404Y0167375D01*
X0028554Y0167426D01*
X0028705Y0167473D01*
X0028857Y0167516D01*
X0029010Y0167555D01*
X0029165Y0167591D01*
X0029320Y0167622D01*
X0029476Y0167650D01*
X0029632Y0167674D01*
X0029789Y0167694D01*
X0029947Y0167710D01*
X0030104Y0167722D01*
X0030263Y0167730D01*
X0030421Y0167734D01*
X0030579Y0167734D01*
X0030737Y0167730D01*
X0030896Y0167722D01*
X0031053Y0167710D01*
X0031211Y0167694D01*
X0031368Y0167674D01*
X0031524Y0167650D01*
X0031680Y0167622D01*
X0031835Y0167591D01*
X0031990Y0167555D01*
X0032143Y0167516D01*
X0032295Y0167473D01*
X0032446Y0167426D01*
X0032596Y0167375D01*
X0032745Y0167320D01*
X0032892Y0167262D01*
X0033038Y0167200D01*
X0033182Y0167135D01*
X0033324Y0167065D01*
X0033465Y0166993D01*
X0033604Y0166916D01*
X0033740Y0166837D01*
X0033875Y0166753D01*
X0034008Y0166667D01*
X0034138Y0166577D01*
X0034266Y0166484D01*
X0034392Y0166388D01*
X0034515Y0166288D01*
X0034636Y0166186D01*
X0034754Y0166081D01*
X0034869Y0165972D01*
X0034982Y0165861D01*
X0035092Y0165747D01*
X0035199Y0165630D01*
X0035303Y0165511D01*
X0035404Y0165389D01*
X0035501Y0165264D01*
X0035596Y0165137D01*
X0035687Y0165008D01*
X0035776Y0164877D01*
X0035860Y0164743D01*
X0035942Y0164607D01*
X0036020Y0164470D01*
X0036094Y0164330D01*
X0036165Y0164188D01*
X0036233Y0164045D01*
X0036297Y0163900D01*
X0036357Y0163754D01*
X0036413Y0163606D01*
X0036466Y0163457D01*
X0036515Y0163306D01*
X0036560Y0163154D01*
X0036601Y0163001D01*
X0036639Y0162848D01*
X0036672Y0162693D01*
X0036702Y0162537D01*
X0036728Y0162381D01*
X0036749Y0162224D01*
X0036767Y0162067D01*
X0036781Y0161909D01*
X0036791Y0161751D01*
X0036797Y0161593D01*
X0036799Y0161435D01*
X0036797Y0161277D01*
X0036791Y0161119D01*
X0036781Y0160961D01*
X0036767Y0160803D01*
X0036749Y0160646D01*
X0036728Y0160489D01*
X0036702Y0160333D01*
X0036672Y0160177D01*
X0036639Y0160022D01*
X0036601Y0159869D01*
X0036560Y0159716D01*
X0036515Y0159564D01*
X0036466Y0159413D01*
X0036413Y0159264D01*
X0036357Y0159116D01*
X0036297Y0158970D01*
X0036233Y0158825D01*
X0036165Y0158682D01*
X0036094Y0158540D01*
X0036020Y0158400D01*
X0035942Y0158263D01*
X0035860Y0158127D01*
X0035776Y0157993D01*
X0035687Y0157862D01*
X0035596Y0157733D01*
X0035501Y0157606D01*
X0035404Y0157481D01*
X0035303Y0157359D01*
X0035199Y0157240D01*
X0035092Y0157123D01*
X0034982Y0157009D01*
X0034869Y0156898D01*
X0034754Y0156789D01*
X0034636Y0156684D01*
X0034515Y0156582D01*
X0034392Y0156482D01*
X0034266Y0156386D01*
X0034138Y0156293D01*
X0034008Y0156203D01*
X0033875Y0156117D01*
X0033740Y0156033D01*
X0033604Y0155954D01*
X0033465Y0155877D01*
X0033324Y0155805D01*
X0033182Y0155735D01*
X0033038Y0155670D01*
X0032892Y0155608D01*
X0032745Y0155550D01*
X0032596Y0155495D01*
X0032446Y0155444D01*
X0032295Y0155397D01*
X0032143Y0155354D01*
X0031990Y0155315D01*
X0031835Y0155279D01*
X0031680Y0155248D01*
X0031524Y0155220D01*
X0031368Y0155196D01*
X0031211Y0155176D01*
X0031053Y0155160D01*
X0030896Y0155148D01*
X0030737Y0155140D01*
X0030579Y0155136D01*
X0030421Y0155136D01*
X0030263Y0155140D01*
X0030104Y0155148D01*
X0029947Y0155160D01*
X0029789Y0155176D01*
X0029632Y0155196D01*
X0029476Y0155220D01*
X0029320Y0155248D01*
X0029165Y0155279D01*
X0029010Y0155315D01*
X0028857Y0155354D01*
X0028705Y0155397D01*
X0028554Y0155444D01*
X0028404Y0155495D01*
X0028255Y0155550D01*
X0028108Y0155608D01*
X0027962Y0155670D01*
X0027818Y0155735D01*
X0027676Y0155805D01*
X0027535Y0155877D01*
X0027396Y0155954D01*
X0027260Y0156033D01*
X0027125Y0156117D01*
X0026992Y0156203D01*
X0026862Y0156293D01*
X0026734Y0156386D01*
X0026608Y0156482D01*
X0026485Y0156582D01*
X0026364Y0156684D01*
X0026246Y0156789D01*
X0026131Y0156898D01*
X0026018Y0157009D01*
X0025908Y0157123D01*
X0025801Y0157240D01*
X0025697Y0157359D01*
X0025596Y0157481D01*
X0025499Y0157606D01*
X0025404Y0157733D01*
X0025313Y0157862D01*
X0025224Y0157993D01*
X0025140Y0158127D01*
X0025058Y0158263D01*
X0024980Y0158400D01*
X0024906Y0158540D01*
X0024835Y0158682D01*
X0024767Y0158825D01*
X0024703Y0158970D01*
X0024643Y0159116D01*
X0024587Y0159264D01*
X0024534Y0159413D01*
X0024485Y0159564D01*
X0024440Y0159716D01*
X0024399Y0159869D01*
X0024361Y0160022D01*
X0024328Y0160177D01*
X0024298Y0160333D01*
X0024272Y0160489D01*
X0024251Y0160646D01*
X0024233Y0160803D01*
X0024219Y0160961D01*
X0024209Y0161119D01*
X0024203Y0161277D01*
X0024201Y0161435D01*
X0164201Y0161435D02*
X0164203Y0161593D01*
X0164209Y0161751D01*
X0164219Y0161909D01*
X0164233Y0162067D01*
X0164251Y0162224D01*
X0164272Y0162381D01*
X0164298Y0162537D01*
X0164328Y0162693D01*
X0164361Y0162848D01*
X0164399Y0163001D01*
X0164440Y0163154D01*
X0164485Y0163306D01*
X0164534Y0163457D01*
X0164587Y0163606D01*
X0164643Y0163754D01*
X0164703Y0163900D01*
X0164767Y0164045D01*
X0164835Y0164188D01*
X0164906Y0164330D01*
X0164980Y0164470D01*
X0165058Y0164607D01*
X0165140Y0164743D01*
X0165224Y0164877D01*
X0165313Y0165008D01*
X0165404Y0165137D01*
X0165499Y0165264D01*
X0165596Y0165389D01*
X0165697Y0165511D01*
X0165801Y0165630D01*
X0165908Y0165747D01*
X0166018Y0165861D01*
X0166131Y0165972D01*
X0166246Y0166081D01*
X0166364Y0166186D01*
X0166485Y0166288D01*
X0166608Y0166388D01*
X0166734Y0166484D01*
X0166862Y0166577D01*
X0166992Y0166667D01*
X0167125Y0166753D01*
X0167260Y0166837D01*
X0167396Y0166916D01*
X0167535Y0166993D01*
X0167676Y0167065D01*
X0167818Y0167135D01*
X0167962Y0167200D01*
X0168108Y0167262D01*
X0168255Y0167320D01*
X0168404Y0167375D01*
X0168554Y0167426D01*
X0168705Y0167473D01*
X0168857Y0167516D01*
X0169010Y0167555D01*
X0169165Y0167591D01*
X0169320Y0167622D01*
X0169476Y0167650D01*
X0169632Y0167674D01*
X0169789Y0167694D01*
X0169947Y0167710D01*
X0170104Y0167722D01*
X0170263Y0167730D01*
X0170421Y0167734D01*
X0170579Y0167734D01*
X0170737Y0167730D01*
X0170896Y0167722D01*
X0171053Y0167710D01*
X0171211Y0167694D01*
X0171368Y0167674D01*
X0171524Y0167650D01*
X0171680Y0167622D01*
X0171835Y0167591D01*
X0171990Y0167555D01*
X0172143Y0167516D01*
X0172295Y0167473D01*
X0172446Y0167426D01*
X0172596Y0167375D01*
X0172745Y0167320D01*
X0172892Y0167262D01*
X0173038Y0167200D01*
X0173182Y0167135D01*
X0173324Y0167065D01*
X0173465Y0166993D01*
X0173604Y0166916D01*
X0173740Y0166837D01*
X0173875Y0166753D01*
X0174008Y0166667D01*
X0174138Y0166577D01*
X0174266Y0166484D01*
X0174392Y0166388D01*
X0174515Y0166288D01*
X0174636Y0166186D01*
X0174754Y0166081D01*
X0174869Y0165972D01*
X0174982Y0165861D01*
X0175092Y0165747D01*
X0175199Y0165630D01*
X0175303Y0165511D01*
X0175404Y0165389D01*
X0175501Y0165264D01*
X0175596Y0165137D01*
X0175687Y0165008D01*
X0175776Y0164877D01*
X0175860Y0164743D01*
X0175942Y0164607D01*
X0176020Y0164470D01*
X0176094Y0164330D01*
X0176165Y0164188D01*
X0176233Y0164045D01*
X0176297Y0163900D01*
X0176357Y0163754D01*
X0176413Y0163606D01*
X0176466Y0163457D01*
X0176515Y0163306D01*
X0176560Y0163154D01*
X0176601Y0163001D01*
X0176639Y0162848D01*
X0176672Y0162693D01*
X0176702Y0162537D01*
X0176728Y0162381D01*
X0176749Y0162224D01*
X0176767Y0162067D01*
X0176781Y0161909D01*
X0176791Y0161751D01*
X0176797Y0161593D01*
X0176799Y0161435D01*
X0176797Y0161277D01*
X0176791Y0161119D01*
X0176781Y0160961D01*
X0176767Y0160803D01*
X0176749Y0160646D01*
X0176728Y0160489D01*
X0176702Y0160333D01*
X0176672Y0160177D01*
X0176639Y0160022D01*
X0176601Y0159869D01*
X0176560Y0159716D01*
X0176515Y0159564D01*
X0176466Y0159413D01*
X0176413Y0159264D01*
X0176357Y0159116D01*
X0176297Y0158970D01*
X0176233Y0158825D01*
X0176165Y0158682D01*
X0176094Y0158540D01*
X0176020Y0158400D01*
X0175942Y0158263D01*
X0175860Y0158127D01*
X0175776Y0157993D01*
X0175687Y0157862D01*
X0175596Y0157733D01*
X0175501Y0157606D01*
X0175404Y0157481D01*
X0175303Y0157359D01*
X0175199Y0157240D01*
X0175092Y0157123D01*
X0174982Y0157009D01*
X0174869Y0156898D01*
X0174754Y0156789D01*
X0174636Y0156684D01*
X0174515Y0156582D01*
X0174392Y0156482D01*
X0174266Y0156386D01*
X0174138Y0156293D01*
X0174008Y0156203D01*
X0173875Y0156117D01*
X0173740Y0156033D01*
X0173604Y0155954D01*
X0173465Y0155877D01*
X0173324Y0155805D01*
X0173182Y0155735D01*
X0173038Y0155670D01*
X0172892Y0155608D01*
X0172745Y0155550D01*
X0172596Y0155495D01*
X0172446Y0155444D01*
X0172295Y0155397D01*
X0172143Y0155354D01*
X0171990Y0155315D01*
X0171835Y0155279D01*
X0171680Y0155248D01*
X0171524Y0155220D01*
X0171368Y0155196D01*
X0171211Y0155176D01*
X0171053Y0155160D01*
X0170896Y0155148D01*
X0170737Y0155140D01*
X0170579Y0155136D01*
X0170421Y0155136D01*
X0170263Y0155140D01*
X0170104Y0155148D01*
X0169947Y0155160D01*
X0169789Y0155176D01*
X0169632Y0155196D01*
X0169476Y0155220D01*
X0169320Y0155248D01*
X0169165Y0155279D01*
X0169010Y0155315D01*
X0168857Y0155354D01*
X0168705Y0155397D01*
X0168554Y0155444D01*
X0168404Y0155495D01*
X0168255Y0155550D01*
X0168108Y0155608D01*
X0167962Y0155670D01*
X0167818Y0155735D01*
X0167676Y0155805D01*
X0167535Y0155877D01*
X0167396Y0155954D01*
X0167260Y0156033D01*
X0167125Y0156117D01*
X0166992Y0156203D01*
X0166862Y0156293D01*
X0166734Y0156386D01*
X0166608Y0156482D01*
X0166485Y0156582D01*
X0166364Y0156684D01*
X0166246Y0156789D01*
X0166131Y0156898D01*
X0166018Y0157009D01*
X0165908Y0157123D01*
X0165801Y0157240D01*
X0165697Y0157359D01*
X0165596Y0157481D01*
X0165499Y0157606D01*
X0165404Y0157733D01*
X0165313Y0157862D01*
X0165224Y0157993D01*
X0165140Y0158127D01*
X0165058Y0158263D01*
X0164980Y0158400D01*
X0164906Y0158540D01*
X0164835Y0158682D01*
X0164767Y0158825D01*
X0164703Y0158970D01*
X0164643Y0159116D01*
X0164587Y0159264D01*
X0164534Y0159413D01*
X0164485Y0159564D01*
X0164440Y0159716D01*
X0164399Y0159869D01*
X0164361Y0160022D01*
X0164328Y0160177D01*
X0164298Y0160333D01*
X0164272Y0160489D01*
X0164251Y0160646D01*
X0164233Y0160803D01*
X0164219Y0160961D01*
X0164209Y0161119D01*
X0164203Y0161277D01*
X0164201Y0161435D01*
X0168959Y0128640D02*
X0168961Y0128739D01*
X0168967Y0128838D01*
X0168977Y0128937D01*
X0168991Y0129035D01*
X0169009Y0129132D01*
X0169031Y0129229D01*
X0169056Y0129325D01*
X0169086Y0129419D01*
X0169119Y0129513D01*
X0169156Y0129605D01*
X0169197Y0129695D01*
X0169241Y0129784D01*
X0169289Y0129870D01*
X0169340Y0129955D01*
X0169395Y0130038D01*
X0169453Y0130118D01*
X0169514Y0130196D01*
X0169578Y0130272D01*
X0169645Y0130345D01*
X0169715Y0130415D01*
X0169788Y0130482D01*
X0169864Y0130546D01*
X0169942Y0130607D01*
X0170022Y0130665D01*
X0170105Y0130720D01*
X0170189Y0130771D01*
X0170276Y0130819D01*
X0170365Y0130863D01*
X0170455Y0130904D01*
X0170547Y0130941D01*
X0170641Y0130974D01*
X0170735Y0131004D01*
X0170831Y0131029D01*
X0170928Y0131051D01*
X0171025Y0131069D01*
X0171123Y0131083D01*
X0171222Y0131093D01*
X0171321Y0131099D01*
X0171420Y0131101D01*
X0171519Y0131099D01*
X0171618Y0131093D01*
X0171717Y0131083D01*
X0171815Y0131069D01*
X0171912Y0131051D01*
X0172009Y0131029D01*
X0172105Y0131004D01*
X0172199Y0130974D01*
X0172293Y0130941D01*
X0172385Y0130904D01*
X0172475Y0130863D01*
X0172564Y0130819D01*
X0172650Y0130771D01*
X0172735Y0130720D01*
X0172818Y0130665D01*
X0172898Y0130607D01*
X0172976Y0130546D01*
X0173052Y0130482D01*
X0173125Y0130415D01*
X0173195Y0130345D01*
X0173262Y0130272D01*
X0173326Y0130196D01*
X0173387Y0130118D01*
X0173445Y0130038D01*
X0173500Y0129955D01*
X0173551Y0129871D01*
X0173599Y0129784D01*
X0173643Y0129695D01*
X0173684Y0129605D01*
X0173721Y0129513D01*
X0173754Y0129419D01*
X0173784Y0129325D01*
X0173809Y0129229D01*
X0173831Y0129132D01*
X0173849Y0129035D01*
X0173863Y0128937D01*
X0173873Y0128838D01*
X0173879Y0128739D01*
X0173881Y0128640D01*
X0173879Y0128541D01*
X0173873Y0128442D01*
X0173863Y0128343D01*
X0173849Y0128245D01*
X0173831Y0128148D01*
X0173809Y0128051D01*
X0173784Y0127955D01*
X0173754Y0127861D01*
X0173721Y0127767D01*
X0173684Y0127675D01*
X0173643Y0127585D01*
X0173599Y0127496D01*
X0173551Y0127410D01*
X0173500Y0127325D01*
X0173445Y0127242D01*
X0173387Y0127162D01*
X0173326Y0127084D01*
X0173262Y0127008D01*
X0173195Y0126935D01*
X0173125Y0126865D01*
X0173052Y0126798D01*
X0172976Y0126734D01*
X0172898Y0126673D01*
X0172818Y0126615D01*
X0172735Y0126560D01*
X0172651Y0126509D01*
X0172564Y0126461D01*
X0172475Y0126417D01*
X0172385Y0126376D01*
X0172293Y0126339D01*
X0172199Y0126306D01*
X0172105Y0126276D01*
X0172009Y0126251D01*
X0171912Y0126229D01*
X0171815Y0126211D01*
X0171717Y0126197D01*
X0171618Y0126187D01*
X0171519Y0126181D01*
X0171420Y0126179D01*
X0171321Y0126181D01*
X0171222Y0126187D01*
X0171123Y0126197D01*
X0171025Y0126211D01*
X0170928Y0126229D01*
X0170831Y0126251D01*
X0170735Y0126276D01*
X0170641Y0126306D01*
X0170547Y0126339D01*
X0170455Y0126376D01*
X0170365Y0126417D01*
X0170276Y0126461D01*
X0170190Y0126509D01*
X0170105Y0126560D01*
X0170022Y0126615D01*
X0169942Y0126673D01*
X0169864Y0126734D01*
X0169788Y0126798D01*
X0169715Y0126865D01*
X0169645Y0126935D01*
X0169578Y0127008D01*
X0169514Y0127084D01*
X0169453Y0127162D01*
X0169395Y0127242D01*
X0169340Y0127325D01*
X0169289Y0127409D01*
X0169241Y0127496D01*
X0169197Y0127585D01*
X0169156Y0127675D01*
X0169119Y0127767D01*
X0169086Y0127861D01*
X0169056Y0127955D01*
X0169031Y0128051D01*
X0169009Y0128148D01*
X0168991Y0128245D01*
X0168977Y0128343D01*
X0168967Y0128442D01*
X0168961Y0128541D01*
X0168959Y0128640D01*
X0168959Y0097144D02*
X0168961Y0097243D01*
X0168967Y0097342D01*
X0168977Y0097441D01*
X0168991Y0097539D01*
X0169009Y0097636D01*
X0169031Y0097733D01*
X0169056Y0097829D01*
X0169086Y0097923D01*
X0169119Y0098017D01*
X0169156Y0098109D01*
X0169197Y0098199D01*
X0169241Y0098288D01*
X0169289Y0098374D01*
X0169340Y0098459D01*
X0169395Y0098542D01*
X0169453Y0098622D01*
X0169514Y0098700D01*
X0169578Y0098776D01*
X0169645Y0098849D01*
X0169715Y0098919D01*
X0169788Y0098986D01*
X0169864Y0099050D01*
X0169942Y0099111D01*
X0170022Y0099169D01*
X0170105Y0099224D01*
X0170189Y0099275D01*
X0170276Y0099323D01*
X0170365Y0099367D01*
X0170455Y0099408D01*
X0170547Y0099445D01*
X0170641Y0099478D01*
X0170735Y0099508D01*
X0170831Y0099533D01*
X0170928Y0099555D01*
X0171025Y0099573D01*
X0171123Y0099587D01*
X0171222Y0099597D01*
X0171321Y0099603D01*
X0171420Y0099605D01*
X0171519Y0099603D01*
X0171618Y0099597D01*
X0171717Y0099587D01*
X0171815Y0099573D01*
X0171912Y0099555D01*
X0172009Y0099533D01*
X0172105Y0099508D01*
X0172199Y0099478D01*
X0172293Y0099445D01*
X0172385Y0099408D01*
X0172475Y0099367D01*
X0172564Y0099323D01*
X0172650Y0099275D01*
X0172735Y0099224D01*
X0172818Y0099169D01*
X0172898Y0099111D01*
X0172976Y0099050D01*
X0173052Y0098986D01*
X0173125Y0098919D01*
X0173195Y0098849D01*
X0173262Y0098776D01*
X0173326Y0098700D01*
X0173387Y0098622D01*
X0173445Y0098542D01*
X0173500Y0098459D01*
X0173551Y0098375D01*
X0173599Y0098288D01*
X0173643Y0098199D01*
X0173684Y0098109D01*
X0173721Y0098017D01*
X0173754Y0097923D01*
X0173784Y0097829D01*
X0173809Y0097733D01*
X0173831Y0097636D01*
X0173849Y0097539D01*
X0173863Y0097441D01*
X0173873Y0097342D01*
X0173879Y0097243D01*
X0173881Y0097144D01*
X0173879Y0097045D01*
X0173873Y0096946D01*
X0173863Y0096847D01*
X0173849Y0096749D01*
X0173831Y0096652D01*
X0173809Y0096555D01*
X0173784Y0096459D01*
X0173754Y0096365D01*
X0173721Y0096271D01*
X0173684Y0096179D01*
X0173643Y0096089D01*
X0173599Y0096000D01*
X0173551Y0095914D01*
X0173500Y0095829D01*
X0173445Y0095746D01*
X0173387Y0095666D01*
X0173326Y0095588D01*
X0173262Y0095512D01*
X0173195Y0095439D01*
X0173125Y0095369D01*
X0173052Y0095302D01*
X0172976Y0095238D01*
X0172898Y0095177D01*
X0172818Y0095119D01*
X0172735Y0095064D01*
X0172651Y0095013D01*
X0172564Y0094965D01*
X0172475Y0094921D01*
X0172385Y0094880D01*
X0172293Y0094843D01*
X0172199Y0094810D01*
X0172105Y0094780D01*
X0172009Y0094755D01*
X0171912Y0094733D01*
X0171815Y0094715D01*
X0171717Y0094701D01*
X0171618Y0094691D01*
X0171519Y0094685D01*
X0171420Y0094683D01*
X0171321Y0094685D01*
X0171222Y0094691D01*
X0171123Y0094701D01*
X0171025Y0094715D01*
X0170928Y0094733D01*
X0170831Y0094755D01*
X0170735Y0094780D01*
X0170641Y0094810D01*
X0170547Y0094843D01*
X0170455Y0094880D01*
X0170365Y0094921D01*
X0170276Y0094965D01*
X0170190Y0095013D01*
X0170105Y0095064D01*
X0170022Y0095119D01*
X0169942Y0095177D01*
X0169864Y0095238D01*
X0169788Y0095302D01*
X0169715Y0095369D01*
X0169645Y0095439D01*
X0169578Y0095512D01*
X0169514Y0095588D01*
X0169453Y0095666D01*
X0169395Y0095746D01*
X0169340Y0095829D01*
X0169289Y0095913D01*
X0169241Y0096000D01*
X0169197Y0096089D01*
X0169156Y0096179D01*
X0169119Y0096271D01*
X0169086Y0096365D01*
X0169056Y0096459D01*
X0169031Y0096555D01*
X0169009Y0096652D01*
X0168991Y0096749D01*
X0168977Y0096847D01*
X0168967Y0096946D01*
X0168961Y0097045D01*
X0168959Y0097144D01*
X0164201Y0021435D02*
X0164203Y0021593D01*
X0164209Y0021751D01*
X0164219Y0021909D01*
X0164233Y0022067D01*
X0164251Y0022224D01*
X0164272Y0022381D01*
X0164298Y0022537D01*
X0164328Y0022693D01*
X0164361Y0022848D01*
X0164399Y0023001D01*
X0164440Y0023154D01*
X0164485Y0023306D01*
X0164534Y0023457D01*
X0164587Y0023606D01*
X0164643Y0023754D01*
X0164703Y0023900D01*
X0164767Y0024045D01*
X0164835Y0024188D01*
X0164906Y0024330D01*
X0164980Y0024470D01*
X0165058Y0024607D01*
X0165140Y0024743D01*
X0165224Y0024877D01*
X0165313Y0025008D01*
X0165404Y0025137D01*
X0165499Y0025264D01*
X0165596Y0025389D01*
X0165697Y0025511D01*
X0165801Y0025630D01*
X0165908Y0025747D01*
X0166018Y0025861D01*
X0166131Y0025972D01*
X0166246Y0026081D01*
X0166364Y0026186D01*
X0166485Y0026288D01*
X0166608Y0026388D01*
X0166734Y0026484D01*
X0166862Y0026577D01*
X0166992Y0026667D01*
X0167125Y0026753D01*
X0167260Y0026837D01*
X0167396Y0026916D01*
X0167535Y0026993D01*
X0167676Y0027065D01*
X0167818Y0027135D01*
X0167962Y0027200D01*
X0168108Y0027262D01*
X0168255Y0027320D01*
X0168404Y0027375D01*
X0168554Y0027426D01*
X0168705Y0027473D01*
X0168857Y0027516D01*
X0169010Y0027555D01*
X0169165Y0027591D01*
X0169320Y0027622D01*
X0169476Y0027650D01*
X0169632Y0027674D01*
X0169789Y0027694D01*
X0169947Y0027710D01*
X0170104Y0027722D01*
X0170263Y0027730D01*
X0170421Y0027734D01*
X0170579Y0027734D01*
X0170737Y0027730D01*
X0170896Y0027722D01*
X0171053Y0027710D01*
X0171211Y0027694D01*
X0171368Y0027674D01*
X0171524Y0027650D01*
X0171680Y0027622D01*
X0171835Y0027591D01*
X0171990Y0027555D01*
X0172143Y0027516D01*
X0172295Y0027473D01*
X0172446Y0027426D01*
X0172596Y0027375D01*
X0172745Y0027320D01*
X0172892Y0027262D01*
X0173038Y0027200D01*
X0173182Y0027135D01*
X0173324Y0027065D01*
X0173465Y0026993D01*
X0173604Y0026916D01*
X0173740Y0026837D01*
X0173875Y0026753D01*
X0174008Y0026667D01*
X0174138Y0026577D01*
X0174266Y0026484D01*
X0174392Y0026388D01*
X0174515Y0026288D01*
X0174636Y0026186D01*
X0174754Y0026081D01*
X0174869Y0025972D01*
X0174982Y0025861D01*
X0175092Y0025747D01*
X0175199Y0025630D01*
X0175303Y0025511D01*
X0175404Y0025389D01*
X0175501Y0025264D01*
X0175596Y0025137D01*
X0175687Y0025008D01*
X0175776Y0024877D01*
X0175860Y0024743D01*
X0175942Y0024607D01*
X0176020Y0024470D01*
X0176094Y0024330D01*
X0176165Y0024188D01*
X0176233Y0024045D01*
X0176297Y0023900D01*
X0176357Y0023754D01*
X0176413Y0023606D01*
X0176466Y0023457D01*
X0176515Y0023306D01*
X0176560Y0023154D01*
X0176601Y0023001D01*
X0176639Y0022848D01*
X0176672Y0022693D01*
X0176702Y0022537D01*
X0176728Y0022381D01*
X0176749Y0022224D01*
X0176767Y0022067D01*
X0176781Y0021909D01*
X0176791Y0021751D01*
X0176797Y0021593D01*
X0176799Y0021435D01*
X0176797Y0021277D01*
X0176791Y0021119D01*
X0176781Y0020961D01*
X0176767Y0020803D01*
X0176749Y0020646D01*
X0176728Y0020489D01*
X0176702Y0020333D01*
X0176672Y0020177D01*
X0176639Y0020022D01*
X0176601Y0019869D01*
X0176560Y0019716D01*
X0176515Y0019564D01*
X0176466Y0019413D01*
X0176413Y0019264D01*
X0176357Y0019116D01*
X0176297Y0018970D01*
X0176233Y0018825D01*
X0176165Y0018682D01*
X0176094Y0018540D01*
X0176020Y0018400D01*
X0175942Y0018263D01*
X0175860Y0018127D01*
X0175776Y0017993D01*
X0175687Y0017862D01*
X0175596Y0017733D01*
X0175501Y0017606D01*
X0175404Y0017481D01*
X0175303Y0017359D01*
X0175199Y0017240D01*
X0175092Y0017123D01*
X0174982Y0017009D01*
X0174869Y0016898D01*
X0174754Y0016789D01*
X0174636Y0016684D01*
X0174515Y0016582D01*
X0174392Y0016482D01*
X0174266Y0016386D01*
X0174138Y0016293D01*
X0174008Y0016203D01*
X0173875Y0016117D01*
X0173740Y0016033D01*
X0173604Y0015954D01*
X0173465Y0015877D01*
X0173324Y0015805D01*
X0173182Y0015735D01*
X0173038Y0015670D01*
X0172892Y0015608D01*
X0172745Y0015550D01*
X0172596Y0015495D01*
X0172446Y0015444D01*
X0172295Y0015397D01*
X0172143Y0015354D01*
X0171990Y0015315D01*
X0171835Y0015279D01*
X0171680Y0015248D01*
X0171524Y0015220D01*
X0171368Y0015196D01*
X0171211Y0015176D01*
X0171053Y0015160D01*
X0170896Y0015148D01*
X0170737Y0015140D01*
X0170579Y0015136D01*
X0170421Y0015136D01*
X0170263Y0015140D01*
X0170104Y0015148D01*
X0169947Y0015160D01*
X0169789Y0015176D01*
X0169632Y0015196D01*
X0169476Y0015220D01*
X0169320Y0015248D01*
X0169165Y0015279D01*
X0169010Y0015315D01*
X0168857Y0015354D01*
X0168705Y0015397D01*
X0168554Y0015444D01*
X0168404Y0015495D01*
X0168255Y0015550D01*
X0168108Y0015608D01*
X0167962Y0015670D01*
X0167818Y0015735D01*
X0167676Y0015805D01*
X0167535Y0015877D01*
X0167396Y0015954D01*
X0167260Y0016033D01*
X0167125Y0016117D01*
X0166992Y0016203D01*
X0166862Y0016293D01*
X0166734Y0016386D01*
X0166608Y0016482D01*
X0166485Y0016582D01*
X0166364Y0016684D01*
X0166246Y0016789D01*
X0166131Y0016898D01*
X0166018Y0017009D01*
X0165908Y0017123D01*
X0165801Y0017240D01*
X0165697Y0017359D01*
X0165596Y0017481D01*
X0165499Y0017606D01*
X0165404Y0017733D01*
X0165313Y0017862D01*
X0165224Y0017993D01*
X0165140Y0018127D01*
X0165058Y0018263D01*
X0164980Y0018400D01*
X0164906Y0018540D01*
X0164835Y0018682D01*
X0164767Y0018825D01*
X0164703Y0018970D01*
X0164643Y0019116D01*
X0164587Y0019264D01*
X0164534Y0019413D01*
X0164485Y0019564D01*
X0164440Y0019716D01*
X0164399Y0019869D01*
X0164361Y0020022D01*
X0164328Y0020177D01*
X0164298Y0020333D01*
X0164272Y0020489D01*
X0164251Y0020646D01*
X0164233Y0020803D01*
X0164219Y0020961D01*
X0164209Y0021119D01*
X0164203Y0021277D01*
X0164201Y0021435D01*
D11*
X0141839Y0026435D03*
X0128059Y0026435D03*
X0114280Y0026435D03*
X0100500Y0026435D03*
X0086720Y0026435D03*
X0072941Y0026435D03*
X0059161Y0026435D03*
X0066051Y0040214D03*
X0079831Y0040214D03*
X0093610Y0040214D03*
X0107390Y0040214D03*
X0121169Y0040214D03*
X0134949Y0040214D03*
D12*
X0139882Y0043201D02*
X0151050Y0043201D01*
X0151050Y0044799D02*
X0138425Y0044799D01*
X0138178Y0045047D02*
X0139781Y0043443D01*
X0140649Y0041348D01*
X0140649Y0039081D01*
X0139781Y0036986D01*
X0138178Y0035382D01*
X0136083Y0034514D01*
X0134344Y0034514D01*
X0136025Y0032913D01*
X0136063Y0032898D01*
X0136485Y0032475D01*
X0136918Y0032063D01*
X0136934Y0032026D01*
X0136963Y0031998D01*
X0137191Y0031446D01*
X0137434Y0030899D01*
X0137434Y0030859D01*
X0137450Y0030821D01*
X0137450Y0030224D01*
X0137453Y0030110D01*
X0138610Y0031267D01*
X0140705Y0032135D01*
X0142972Y0032135D01*
X0145067Y0031267D01*
X0146671Y0029664D01*
X0147539Y0027569D01*
X0147539Y0025301D01*
X0146671Y0023206D01*
X0145067Y0021603D01*
X0143067Y0020774D01*
X0143266Y0020576D01*
X0143875Y0019106D01*
X0143875Y0017514D01*
X0143266Y0016044D01*
X0142141Y0014919D01*
X0140671Y0014310D01*
X0139079Y0014310D01*
X0137609Y0014919D01*
X0136484Y0016044D01*
X0135875Y0017514D01*
X0135875Y0017784D01*
X0131672Y0021987D01*
X0131288Y0021603D01*
X0129972Y0021058D01*
X0130454Y0020576D01*
X0131062Y0019106D01*
X0131062Y0017514D01*
X0130454Y0016044D01*
X0129328Y0014919D01*
X0127858Y0014310D01*
X0126267Y0014310D01*
X0124797Y0014919D01*
X0124606Y0015110D01*
X0124551Y0015110D01*
X0124228Y0015244D01*
X0123886Y0015318D01*
X0123645Y0015485D01*
X0123375Y0015597D01*
X0123127Y0015845D01*
X0122840Y0016044D01*
X0122682Y0016290D01*
X0122475Y0016497D01*
X0122341Y0016821D01*
X0119869Y0020665D01*
X0119662Y0020872D01*
X0119528Y0021196D01*
X0119339Y0021490D01*
X0119287Y0021778D01*
X0119175Y0022048D01*
X0119175Y0022398D01*
X0119113Y0022743D01*
X0119175Y0023029D01*
X0119175Y0023359D01*
X0119112Y0023206D01*
X0118624Y0022718D01*
X0118891Y0022451D01*
X0119500Y0020981D01*
X0119500Y0019389D01*
X0118891Y0017919D01*
X0117766Y0016794D01*
X0116296Y0016185D01*
X0116025Y0016185D01*
X0110750Y0010910D01*
X0109574Y0010422D01*
X0062051Y0010422D01*
X0060875Y0010910D01*
X0059975Y0011810D01*
X0050287Y0021497D01*
X0049800Y0022673D01*
X0049800Y0040196D01*
X0050287Y0041373D01*
X0051187Y0042273D01*
X0053062Y0044148D01*
X0054129Y0044590D01*
X0062300Y0052760D01*
X0062300Y0063235D01*
X0031668Y0063235D01*
X0031580Y0063204D01*
X0031034Y0063235D01*
X0030488Y0063235D01*
X0030402Y0063271D01*
X0030309Y0063276D01*
X0029817Y0063513D01*
X0029312Y0063722D01*
X0029246Y0063788D01*
X0029162Y0063829D01*
X0028798Y0064236D01*
X0028412Y0064622D01*
X0028376Y0064709D01*
X0020986Y0072986D01*
X0020600Y0073372D01*
X0020564Y0073459D01*
X0020502Y0073528D01*
X0020469Y0073622D01*
X0019921Y0074169D01*
X0019313Y0075639D01*
X0019313Y0077231D01*
X0019921Y0078701D01*
X0021047Y0079826D01*
X0022517Y0080435D01*
X0024108Y0080435D01*
X0025578Y0079826D01*
X0026594Y0078811D01*
X0027609Y0079826D01*
X0029079Y0080435D01*
X0030671Y0080435D01*
X0032141Y0079826D01*
X0033266Y0078701D01*
X0033875Y0077231D01*
X0033875Y0075639D01*
X0033347Y0074364D01*
X0034325Y0073385D01*
X0039093Y0073385D01*
X0022423Y0090560D01*
X0022204Y0090560D01*
X0020734Y0091169D01*
X0019609Y0092294D01*
X0019000Y0093764D01*
X0019000Y0095356D01*
X0019609Y0096826D01*
X0020734Y0097951D01*
X0022204Y0098560D01*
X0023796Y0098560D01*
X0025266Y0097951D01*
X0026391Y0096826D01*
X0027000Y0095356D01*
X0027000Y0095033D01*
X0044979Y0076510D01*
X0072150Y0076510D01*
X0057787Y0090872D01*
X0057300Y0092048D01*
X0057300Y0122696D01*
X0057787Y0123873D01*
X0058687Y0124773D01*
X0062925Y0129010D01*
X0062925Y0129571D01*
X0063412Y0130748D01*
X0063137Y0130083D01*
X0059562Y0130185D01*
X0059562Y0174035D01*
X0148644Y0174035D01*
X0148783Y0154185D01*
X0147204Y0154185D01*
X0145734Y0153576D01*
X0144609Y0152451D01*
X0144000Y0150981D01*
X0144000Y0149389D01*
X0144609Y0147919D01*
X0144800Y0147728D01*
X0144800Y0132250D01*
X0144759Y0132123D01*
X0144764Y0132060D01*
X0126125Y0132060D01*
X0126125Y0153235D01*
X0130591Y0153235D01*
X0135273Y0149334D01*
X0135859Y0147919D01*
X0136984Y0146794D01*
X0138454Y0146185D01*
X0140046Y0146185D01*
X0141516Y0146794D01*
X0142641Y0147919D01*
X0143250Y0149389D01*
X0143250Y0150981D01*
X0142641Y0152451D01*
X0141516Y0153576D01*
X0140046Y0154185D01*
X0139449Y0154185D01*
X0133910Y0158800D01*
X0133563Y0159148D01*
X0133424Y0159205D01*
X0133310Y0159301D01*
X0132841Y0159447D01*
X0132387Y0159635D01*
X0132237Y0159635D01*
X0132094Y0159679D01*
X0131605Y0159635D01*
X0073613Y0159635D01*
X0072437Y0159148D01*
X0071537Y0158248D01*
X0071537Y0158248D01*
X0067787Y0154498D01*
X0067300Y0153321D01*
X0067300Y0134635D01*
X0063412Y0130748D01*
X0066600Y0133935D01*
X0059875Y0133935D01*
X0058000Y0132060D01*
X0017900Y0132650D01*
X0017900Y0008835D01*
X0183100Y0008835D01*
X0183100Y0132685D01*
X0174249Y0132685D01*
X0175541Y0131393D01*
X0176281Y0129607D01*
X0176281Y0127673D01*
X0175541Y0125886D01*
X0174174Y0124519D01*
X0172387Y0123779D01*
X0170453Y0123779D01*
X0168667Y0124519D01*
X0167300Y0125886D01*
X0166560Y0127673D01*
X0166560Y0129607D01*
X0167300Y0131393D01*
X0168592Y0132685D01*
X0151838Y0132685D01*
X0155939Y0129199D01*
X0156063Y0129148D01*
X0156421Y0128789D01*
X0156807Y0128461D01*
X0156868Y0128342D01*
X0156963Y0128248D01*
X0157157Y0127779D01*
X0157388Y0127328D01*
X0157399Y0127195D01*
X0157450Y0127071D01*
X0157450Y0126564D01*
X0157491Y0126059D01*
X0157450Y0125932D01*
X0157450Y0029517D01*
X0157641Y0029326D01*
X0158250Y0027856D01*
X0158250Y0026264D01*
X0157641Y0024794D01*
X0156516Y0023669D01*
X0155046Y0023060D01*
X0153454Y0023060D01*
X0151984Y0023669D01*
X0150859Y0024794D01*
X0150250Y0026264D01*
X0150250Y0027856D01*
X0150859Y0029326D01*
X0151050Y0029517D01*
X0151050Y0124955D01*
X0146311Y0128984D01*
X0146187Y0129035D01*
X0145829Y0129393D01*
X0145443Y0129721D01*
X0145382Y0129840D01*
X0145287Y0129935D01*
X0145093Y0130403D01*
X0144862Y0130854D01*
X0144851Y0130988D01*
X0144800Y0131111D01*
X0144800Y0131618D01*
X0144759Y0132123D01*
X0144800Y0132250D01*
X0144800Y0134560D01*
X0126125Y0134560D01*
X0126125Y0116435D01*
X0093124Y0116060D01*
X0094421Y0116060D01*
X0095891Y0115451D01*
X0097016Y0114326D01*
X0097625Y0112856D01*
X0097625Y0111264D01*
X0097016Y0109794D01*
X0096825Y0109603D01*
X0096825Y0097310D01*
X0096921Y0097310D01*
X0098391Y0096701D01*
X0099516Y0095576D01*
X0100125Y0094106D01*
X0100125Y0092514D01*
X0099516Y0091044D01*
X0098391Y0089919D01*
X0096921Y0089310D01*
X0095329Y0089310D01*
X0093859Y0089919D01*
X0092734Y0091044D01*
X0092375Y0091911D01*
X0092016Y0091044D01*
X0090891Y0089919D01*
X0089421Y0089310D01*
X0087829Y0089310D01*
X0086359Y0089919D01*
X0085234Y0091044D01*
X0084625Y0092514D01*
X0084625Y0094106D01*
X0085234Y0095576D01*
X0085425Y0095767D01*
X0085425Y0115972D01*
X0071125Y0115810D01*
X0071125Y0123444D01*
X0066825Y0119422D01*
X0066825Y0095297D01*
X0081446Y0081239D01*
X0083160Y0080858D01*
X0083568Y0080827D01*
X0083775Y0080721D01*
X0084003Y0080671D01*
X0084338Y0080436D01*
X0084703Y0080251D01*
X0084855Y0080074D01*
X0085045Y0079940D01*
X0085265Y0079595D01*
X0086912Y0077673D01*
X0087275Y0077310D01*
X0087324Y0077193D01*
X0087406Y0077097D01*
X0087566Y0076608D01*
X0087762Y0076134D01*
X0087762Y0076007D01*
X0087802Y0075887D01*
X0087762Y0075375D01*
X0087762Y0070260D01*
X0099013Y0059010D01*
X0111501Y0059010D01*
X0112125Y0059758D01*
X0112125Y0060356D01*
X0112734Y0061826D01*
X0113859Y0062951D01*
X0115329Y0063560D01*
X0116921Y0063560D01*
X0118391Y0062951D01*
X0119516Y0061826D01*
X0120125Y0060356D01*
X0120125Y0058764D01*
X0119516Y0057294D01*
X0118391Y0056169D01*
X0116976Y0055583D01*
X0115770Y0054135D01*
X0115713Y0053997D01*
X0115365Y0053650D01*
X0115051Y0053272D01*
X0114918Y0053203D01*
X0114813Y0053097D01*
X0114451Y0052947D01*
X0117138Y0050260D01*
X0123324Y0050260D01*
X0124500Y0049773D01*
X0125400Y0048873D01*
X0125400Y0048873D01*
X0129500Y0044773D01*
X0129500Y0044773D01*
X0130400Y0043873D01*
X0130443Y0043770D01*
X0131720Y0045047D01*
X0133815Y0045914D01*
X0136083Y0045914D01*
X0138178Y0045047D01*
X0140544Y0041602D02*
X0151050Y0041602D01*
X0151050Y0040004D02*
X0140649Y0040004D01*
X0140369Y0038405D02*
X0151050Y0038405D01*
X0151050Y0036807D02*
X0139602Y0036807D01*
X0137757Y0035208D02*
X0151050Y0035208D01*
X0151050Y0033610D02*
X0135294Y0033610D01*
X0136949Y0032011D02*
X0140406Y0032011D01*
X0143271Y0032011D02*
X0151050Y0032011D01*
X0151050Y0030413D02*
X0145922Y0030413D01*
X0147023Y0028814D02*
X0150647Y0028814D01*
X0150250Y0027216D02*
X0147539Y0027216D01*
X0147539Y0025617D02*
X0150518Y0025617D01*
X0151635Y0024019D02*
X0147007Y0024019D01*
X0145885Y0022420D02*
X0161801Y0022420D01*
X0161801Y0023165D02*
X0161801Y0019705D01*
X0163125Y0016507D01*
X0165572Y0014060D01*
X0168770Y0012736D01*
X0172230Y0012736D01*
X0175428Y0014060D01*
X0177875Y0016507D01*
X0179199Y0019705D01*
X0179199Y0023165D01*
X0177875Y0026363D01*
X0175428Y0028810D01*
X0172230Y0030134D01*
X0168770Y0030134D01*
X0165572Y0028810D01*
X0163125Y0026363D01*
X0161801Y0023165D01*
X0162154Y0024019D02*
X0156865Y0024019D01*
X0157982Y0025617D02*
X0162816Y0025617D01*
X0163978Y0027216D02*
X0158250Y0027216D01*
X0157853Y0028814D02*
X0165583Y0028814D01*
X0157450Y0030413D02*
X0183100Y0030413D01*
X0183100Y0032011D02*
X0157450Y0032011D01*
X0157450Y0033610D02*
X0183100Y0033610D01*
X0183100Y0035208D02*
X0157450Y0035208D01*
X0157450Y0036807D02*
X0183100Y0036807D01*
X0183100Y0038405D02*
X0157450Y0038405D01*
X0157450Y0040004D02*
X0183100Y0040004D01*
X0183100Y0041602D02*
X0157450Y0041602D01*
X0157450Y0043201D02*
X0183100Y0043201D01*
X0183100Y0044799D02*
X0157450Y0044799D01*
X0157450Y0046398D02*
X0183100Y0046398D01*
X0183100Y0047996D02*
X0157450Y0047996D01*
X0157450Y0049595D02*
X0183100Y0049595D01*
X0183100Y0051193D02*
X0157450Y0051193D01*
X0157450Y0052792D02*
X0183100Y0052792D01*
X0183100Y0054390D02*
X0157450Y0054390D01*
X0157450Y0055989D02*
X0183100Y0055989D01*
X0183100Y0057587D02*
X0157450Y0057587D01*
X0157450Y0059186D02*
X0183100Y0059186D01*
X0183100Y0060784D02*
X0157450Y0060784D01*
X0157450Y0062383D02*
X0183100Y0062383D01*
X0183100Y0063981D02*
X0157450Y0063981D01*
X0157450Y0065580D02*
X0183100Y0065580D01*
X0183100Y0067178D02*
X0157450Y0067178D01*
X0157450Y0068777D02*
X0183100Y0068777D01*
X0183100Y0070375D02*
X0157450Y0070375D01*
X0157450Y0071974D02*
X0183100Y0071974D01*
X0183100Y0073572D02*
X0157450Y0073572D01*
X0157450Y0075171D02*
X0183100Y0075171D01*
X0183100Y0076769D02*
X0157450Y0076769D01*
X0157450Y0078368D02*
X0183100Y0078368D01*
X0183100Y0079966D02*
X0157450Y0079966D01*
X0157450Y0081565D02*
X0183100Y0081565D01*
X0183100Y0083163D02*
X0157450Y0083163D01*
X0157450Y0084762D02*
X0183100Y0084762D01*
X0183100Y0086361D02*
X0157450Y0086361D01*
X0157450Y0087959D02*
X0183100Y0087959D01*
X0183100Y0089558D02*
X0157450Y0089558D01*
X0157450Y0091156D02*
X0183100Y0091156D01*
X0183100Y0092755D02*
X0173526Y0092755D01*
X0174174Y0093023D02*
X0175541Y0094390D01*
X0176281Y0096177D01*
X0176281Y0098110D01*
X0175541Y0099897D01*
X0174174Y0101264D01*
X0172387Y0102004D01*
X0170453Y0102004D01*
X0168667Y0101264D01*
X0167300Y0099897D01*
X0166560Y0098110D01*
X0166560Y0096177D01*
X0167300Y0094390D01*
X0168667Y0093023D01*
X0170453Y0092283D01*
X0172387Y0092283D01*
X0174174Y0093023D01*
X0175504Y0094353D02*
X0183100Y0094353D01*
X0183100Y0095952D02*
X0176188Y0095952D01*
X0176281Y0097550D02*
X0183100Y0097550D01*
X0183100Y0099149D02*
X0175851Y0099149D01*
X0174691Y0100747D02*
X0183100Y0100747D01*
X0183100Y0102346D02*
X0157450Y0102346D01*
X0157450Y0103944D02*
X0183100Y0103944D01*
X0183100Y0105543D02*
X0157450Y0105543D01*
X0157450Y0107141D02*
X0183100Y0107141D01*
X0183100Y0108740D02*
X0157450Y0108740D01*
X0157450Y0110338D02*
X0183100Y0110338D01*
X0183100Y0111937D02*
X0157450Y0111937D01*
X0157450Y0113535D02*
X0183100Y0113535D01*
X0183100Y0115134D02*
X0157450Y0115134D01*
X0157450Y0116732D02*
X0183100Y0116732D01*
X0183100Y0118331D02*
X0157450Y0118331D01*
X0157450Y0119929D02*
X0183100Y0119929D01*
X0183100Y0121528D02*
X0157450Y0121528D01*
X0157450Y0123126D02*
X0183100Y0123126D01*
X0183100Y0124725D02*
X0174379Y0124725D01*
X0175722Y0126323D02*
X0183100Y0126323D01*
X0183100Y0127922D02*
X0176281Y0127922D01*
X0176281Y0129520D02*
X0183100Y0129520D01*
X0183100Y0131119D02*
X0175654Y0131119D01*
X0167186Y0131119D02*
X0153680Y0131119D01*
X0155561Y0129520D02*
X0166560Y0129520D01*
X0166560Y0127922D02*
X0157098Y0127922D01*
X0157470Y0126323D02*
X0167119Y0126323D01*
X0168461Y0124725D02*
X0157450Y0124725D01*
X0154250Y0126435D02*
X0154250Y0027060D01*
X0161801Y0020822D02*
X0143181Y0020822D01*
X0143826Y0019223D02*
X0162000Y0019223D01*
X0162662Y0017625D02*
X0143875Y0017625D01*
X0143248Y0016026D02*
X0163606Y0016026D01*
X0165205Y0014427D02*
X0140954Y0014427D01*
X0138796Y0014427D02*
X0128142Y0014427D01*
X0125983Y0014427D02*
X0114268Y0014427D01*
X0112670Y0012829D02*
X0168544Y0012829D01*
X0172456Y0012829D02*
X0183100Y0012829D01*
X0183100Y0014427D02*
X0175795Y0014427D01*
X0177394Y0016026D02*
X0183100Y0016026D01*
X0183100Y0017625D02*
X0178338Y0017625D01*
X0179000Y0019223D02*
X0183100Y0019223D01*
X0183100Y0020822D02*
X0179199Y0020822D01*
X0179199Y0022420D02*
X0183100Y0022420D01*
X0183100Y0024019D02*
X0178846Y0024019D01*
X0178184Y0025617D02*
X0183100Y0025617D01*
X0183100Y0027216D02*
X0177022Y0027216D01*
X0175417Y0028814D02*
X0183100Y0028814D01*
X0183100Y0011230D02*
X0111071Y0011230D01*
X0108937Y0013622D02*
X0115500Y0020185D01*
X0118596Y0017625D02*
X0121824Y0017625D01*
X0120796Y0019223D02*
X0119431Y0019223D01*
X0119500Y0020822D02*
X0119713Y0020822D01*
X0119171Y0022420D02*
X0118904Y0022420D01*
X0122375Y0022685D02*
X0122375Y0031747D01*
X0114250Y0038310D01*
X0114250Y0043310D01*
X0110500Y0047060D01*
X0096750Y0047060D01*
X0072375Y0070185D01*
X0033000Y0070185D01*
X0029875Y0073310D01*
X0029875Y0076435D01*
X0033681Y0075171D02*
X0037359Y0075171D01*
X0035808Y0076769D02*
X0033875Y0076769D01*
X0034256Y0078368D02*
X0033404Y0078368D01*
X0032705Y0079966D02*
X0031802Y0079966D01*
X0031153Y0081565D02*
X0017900Y0081565D01*
X0017900Y0083163D02*
X0029602Y0083163D01*
X0028050Y0084762D02*
X0017900Y0084762D01*
X0017900Y0086361D02*
X0026499Y0086361D01*
X0024947Y0087959D02*
X0017900Y0087959D01*
X0017900Y0089558D02*
X0023396Y0089558D01*
X0020765Y0091156D02*
X0017900Y0091156D01*
X0017900Y0092755D02*
X0019418Y0092755D01*
X0019000Y0094353D02*
X0017900Y0094353D01*
X0017900Y0095952D02*
X0019247Y0095952D01*
X0020333Y0097550D02*
X0017900Y0097550D01*
X0017900Y0099149D02*
X0057300Y0099149D01*
X0057300Y0100747D02*
X0017900Y0100747D01*
X0017900Y0102346D02*
X0057300Y0102346D01*
X0057300Y0103944D02*
X0017900Y0103944D01*
X0017900Y0105543D02*
X0057300Y0105543D01*
X0057300Y0107141D02*
X0017900Y0107141D01*
X0017900Y0108740D02*
X0057300Y0108740D01*
X0057300Y0110338D02*
X0017900Y0110338D01*
X0017900Y0111937D02*
X0057300Y0111937D01*
X0057300Y0113535D02*
X0017900Y0113535D01*
X0017900Y0115134D02*
X0057300Y0115134D01*
X0057300Y0116732D02*
X0017900Y0116732D01*
X0017900Y0118331D02*
X0057300Y0118331D01*
X0057300Y0119929D02*
X0017900Y0119929D01*
X0017900Y0121528D02*
X0057300Y0121528D01*
X0057478Y0123126D02*
X0017900Y0123126D01*
X0017900Y0124725D02*
X0058639Y0124725D01*
X0060238Y0126323D02*
X0017900Y0126323D01*
X0017900Y0127922D02*
X0061836Y0127922D01*
X0062925Y0129520D02*
X0017900Y0129520D01*
X0017900Y0131119D02*
X0063783Y0131119D01*
X0059562Y0131119D01*
X0059562Y0132717D02*
X0065382Y0132717D01*
X0058657Y0132717D01*
X0059562Y0134316D02*
X0066980Y0134316D01*
X0067300Y0135914D02*
X0059562Y0135914D01*
X0059562Y0137513D02*
X0067300Y0137513D01*
X0067300Y0139111D02*
X0059562Y0139111D01*
X0059562Y0140710D02*
X0067300Y0140710D01*
X0067300Y0142308D02*
X0059562Y0142308D01*
X0059562Y0143907D02*
X0067300Y0143907D01*
X0067300Y0145505D02*
X0059562Y0145505D01*
X0060500Y0146435D02*
X0060500Y0126435D01*
X0060500Y0122060D02*
X0060500Y0092685D01*
X0079875Y0073310D01*
X0084563Y0075497D02*
X0084563Y0068935D01*
X0097687Y0055810D01*
X0113000Y0055810D01*
X0116125Y0059560D01*
X0118959Y0062383D02*
X0151050Y0062383D01*
X0151050Y0063981D02*
X0094042Y0063981D01*
X0095640Y0062383D02*
X0113291Y0062383D01*
X0112303Y0060784D02*
X0097239Y0060784D01*
X0098837Y0059186D02*
X0111648Y0059186D01*
X0115982Y0054390D02*
X0151050Y0054390D01*
X0151050Y0052792D02*
X0114606Y0052792D01*
X0116205Y0051193D02*
X0151050Y0051193D01*
X0151050Y0049595D02*
X0124678Y0049595D01*
X0126277Y0047996D02*
X0151050Y0047996D01*
X0151050Y0046398D02*
X0127875Y0046398D01*
X0129474Y0044799D02*
X0131473Y0044799D01*
X0127687Y0042060D02*
X0122687Y0047060D01*
X0115812Y0047060D01*
X0110812Y0052060D01*
X0096125Y0052060D01*
X0073625Y0073310D01*
X0043625Y0073310D01*
X0023000Y0094560D01*
X0026753Y0095952D02*
X0057300Y0095952D01*
X0057300Y0097550D02*
X0025667Y0097550D01*
X0027660Y0094353D02*
X0057300Y0094353D01*
X0057300Y0092755D02*
X0029212Y0092755D01*
X0030763Y0091156D02*
X0057670Y0091156D01*
X0059102Y0089558D02*
X0032315Y0089558D01*
X0033866Y0087959D02*
X0060700Y0087959D01*
X0062299Y0086361D02*
X0035418Y0086361D01*
X0036969Y0084762D02*
X0063897Y0084762D01*
X0065496Y0083163D02*
X0038521Y0083163D01*
X0040072Y0081565D02*
X0067094Y0081565D01*
X0068693Y0079966D02*
X0041624Y0079966D01*
X0043175Y0078368D02*
X0070291Y0078368D01*
X0071890Y0076769D02*
X0044727Y0076769D01*
X0038911Y0073572D02*
X0034138Y0073572D01*
X0031125Y0066435D02*
X0065500Y0066435D01*
X0065500Y0051435D01*
X0055500Y0041435D01*
X0054875Y0041435D01*
X0053000Y0039560D01*
X0053000Y0023310D01*
X0062687Y0013622D01*
X0108937Y0013622D01*
X0107612Y0016822D02*
X0068901Y0016822D01*
X0069187Y0017514D01*
X0069187Y0019106D01*
X0068579Y0020576D01*
X0068463Y0020691D01*
X0068529Y0022786D01*
X0069712Y0021603D01*
X0071807Y0020735D01*
X0074075Y0020735D01*
X0076170Y0021603D01*
X0077773Y0023206D01*
X0078641Y0025301D01*
X0078641Y0027569D01*
X0077773Y0029664D01*
X0076170Y0031267D01*
X0074075Y0032135D01*
X0071807Y0032135D01*
X0069712Y0031267D01*
X0068331Y0029886D01*
X0068289Y0030003D01*
X0068275Y0030018D01*
X0068268Y0030037D01*
X0067846Y0030487D01*
X0064803Y0033806D01*
X0064775Y0033873D01*
X0064374Y0034274D01*
X0063991Y0034691D01*
X0063926Y0034722D01*
X0063875Y0034773D01*
X0063351Y0034990D01*
X0062837Y0035229D01*
X0062766Y0035232D01*
X0062699Y0035260D01*
X0062132Y0035260D01*
X0061566Y0035285D01*
X0061498Y0035260D01*
X0059325Y0035260D01*
X0059325Y0036359D01*
X0060848Y0037882D01*
X0061219Y0036986D01*
X0062822Y0035382D01*
X0064917Y0034514D01*
X0067185Y0034514D01*
X0069280Y0035382D01*
X0070883Y0036986D01*
X0071751Y0039081D01*
X0071751Y0041348D01*
X0070883Y0043443D01*
X0069280Y0045047D01*
X0068384Y0045418D01*
X0071688Y0048722D01*
X0072588Y0049622D01*
X0073075Y0050798D01*
X0073075Y0060549D01*
X0073259Y0060855D01*
X0074016Y0061169D01*
X0075141Y0062294D01*
X0075395Y0062908D01*
X0093940Y0045314D01*
X0093696Y0045314D01*
X0093696Y0040300D01*
X0098710Y0040300D01*
X0098710Y0040616D01*
X0098585Y0041409D01*
X0098337Y0042172D01*
X0097972Y0042887D01*
X0097500Y0043537D01*
X0097177Y0043860D01*
X0102974Y0043860D01*
X0102558Y0043443D01*
X0101690Y0041348D01*
X0101690Y0039081D01*
X0102558Y0036986D01*
X0104161Y0035382D01*
X0106256Y0034514D01*
X0108524Y0034514D01*
X0110619Y0035382D01*
X0111635Y0036399D01*
X0111661Y0036374D01*
X0111744Y0036220D01*
X0112107Y0035927D01*
X0112437Y0035597D01*
X0112599Y0035530D01*
X0119175Y0030219D01*
X0119175Y0029511D01*
X0119112Y0029664D01*
X0117508Y0031267D01*
X0115413Y0032135D01*
X0113146Y0032135D01*
X0111051Y0031267D01*
X0109447Y0029664D01*
X0108580Y0027569D01*
X0108580Y0025301D01*
X0109447Y0023206D01*
X0111051Y0021603D01*
X0111654Y0021353D01*
X0111500Y0020981D01*
X0111500Y0020710D01*
X0107612Y0016822D01*
X0108414Y0017625D02*
X0069187Y0017625D01*
X0069139Y0019223D02*
X0110013Y0019223D01*
X0111500Y0020822D02*
X0101843Y0020822D01*
X0101634Y0020735D02*
X0103729Y0021603D01*
X0105332Y0023206D01*
X0106200Y0025301D01*
X0106200Y0027569D01*
X0105332Y0029664D01*
X0103729Y0031267D01*
X0101634Y0032135D01*
X0099366Y0032135D01*
X0097271Y0031267D01*
X0095668Y0029664D01*
X0094800Y0027569D01*
X0094800Y0025301D01*
X0095668Y0023206D01*
X0097271Y0021603D01*
X0099366Y0020735D01*
X0101634Y0020735D01*
X0099157Y0020822D02*
X0088063Y0020822D01*
X0087854Y0020735D02*
X0089949Y0021603D01*
X0091553Y0023206D01*
X0092420Y0025301D01*
X0092420Y0027569D01*
X0091553Y0029664D01*
X0089949Y0031267D01*
X0087854Y0032135D01*
X0085587Y0032135D01*
X0083492Y0031267D01*
X0081888Y0029664D01*
X0081020Y0027569D01*
X0081020Y0025301D01*
X0081888Y0023206D01*
X0083492Y0021603D01*
X0085587Y0020735D01*
X0087854Y0020735D01*
X0085378Y0020822D02*
X0074284Y0020822D01*
X0076987Y0022420D02*
X0082674Y0022420D01*
X0081552Y0024019D02*
X0078110Y0024019D01*
X0078641Y0025617D02*
X0081020Y0025617D01*
X0081020Y0027216D02*
X0078641Y0027216D01*
X0078125Y0028814D02*
X0081536Y0028814D01*
X0082637Y0030413D02*
X0077024Y0030413D01*
X0074374Y0032011D02*
X0085288Y0032011D01*
X0088153Y0032011D02*
X0099067Y0032011D01*
X0101933Y0032011D02*
X0112847Y0032011D01*
X0114977Y0033610D02*
X0064983Y0033610D01*
X0066448Y0032011D02*
X0071508Y0032011D01*
X0068858Y0030413D02*
X0067915Y0030413D01*
X0065500Y0028310D02*
X0062062Y0032060D01*
X0057687Y0032060D01*
X0056125Y0033935D01*
X0056125Y0037685D01*
X0069875Y0051435D01*
X0069875Y0061435D01*
X0071750Y0064560D01*
X0075178Y0062383D02*
X0075949Y0062383D01*
X0077634Y0060784D02*
X0073216Y0060784D01*
X0073075Y0059186D02*
X0079319Y0059186D01*
X0081004Y0057587D02*
X0073075Y0057587D01*
X0073075Y0055989D02*
X0082689Y0055989D01*
X0084374Y0054390D02*
X0073075Y0054390D01*
X0073075Y0052792D02*
X0086059Y0052792D01*
X0087744Y0051193D02*
X0073075Y0051193D01*
X0072560Y0049595D02*
X0089429Y0049595D01*
X0091114Y0047996D02*
X0070962Y0047996D01*
X0069363Y0046398D02*
X0092799Y0046398D01*
X0093209Y0045314D02*
X0092416Y0045189D01*
X0091653Y0044941D01*
X0090937Y0044576D01*
X0090288Y0044105D01*
X0089720Y0043537D01*
X0089248Y0042887D01*
X0088884Y0042172D01*
X0088636Y0041409D01*
X0088510Y0040616D01*
X0088510Y0040300D01*
X0093524Y0040300D01*
X0093524Y0040129D01*
X0088510Y0040129D01*
X0088510Y0039813D01*
X0088636Y0039020D01*
X0088884Y0038257D01*
X0089248Y0037541D01*
X0089720Y0036892D01*
X0090288Y0036324D01*
X0090937Y0035853D01*
X0091653Y0035488D01*
X0092416Y0035240D01*
X0093209Y0035114D01*
X0093524Y0035114D01*
X0093524Y0040129D01*
X0093696Y0040129D01*
X0093696Y0040300D01*
X0093524Y0040300D01*
X0093524Y0045314D01*
X0093209Y0045314D01*
X0093524Y0044799D02*
X0093696Y0044799D01*
X0093696Y0043201D02*
X0093524Y0043201D01*
X0093524Y0041602D02*
X0093696Y0041602D01*
X0093696Y0040129D02*
X0098710Y0040129D01*
X0098710Y0039813D01*
X0098585Y0039020D01*
X0098337Y0038257D01*
X0097972Y0037541D01*
X0097500Y0036892D01*
X0096933Y0036324D01*
X0096283Y0035853D01*
X0095568Y0035488D01*
X0094804Y0035240D01*
X0094012Y0035114D01*
X0093696Y0035114D01*
X0093696Y0040129D01*
X0093696Y0040004D02*
X0093524Y0040004D01*
X0093524Y0038405D02*
X0093696Y0038405D01*
X0093696Y0036807D02*
X0093524Y0036807D01*
X0093524Y0035208D02*
X0093696Y0035208D01*
X0094603Y0035208D02*
X0104581Y0035208D01*
X0102737Y0036807D02*
X0097415Y0036807D01*
X0098385Y0038405D02*
X0101970Y0038405D01*
X0101690Y0040004D02*
X0098710Y0040004D01*
X0098522Y0041602D02*
X0101795Y0041602D01*
X0102457Y0043201D02*
X0097745Y0043201D01*
X0091375Y0044799D02*
X0082066Y0044799D01*
X0081788Y0044941D02*
X0081025Y0045189D01*
X0080232Y0045314D01*
X0079917Y0045314D01*
X0079917Y0040300D01*
X0084931Y0040300D01*
X0084931Y0040616D01*
X0084805Y0041409D01*
X0084557Y0042172D01*
X0084193Y0042887D01*
X0083721Y0043537D01*
X0083153Y0044105D01*
X0082504Y0044576D01*
X0081788Y0044941D01*
X0079917Y0044799D02*
X0079745Y0044799D01*
X0079745Y0045314D02*
X0079429Y0045314D01*
X0078636Y0045189D01*
X0077873Y0044941D01*
X0077158Y0044576D01*
X0076508Y0044105D01*
X0075941Y0043537D01*
X0075469Y0042887D01*
X0075104Y0042172D01*
X0074856Y0041409D01*
X0074731Y0040616D01*
X0074731Y0040300D01*
X0079745Y0040300D01*
X0079745Y0040129D01*
X0074731Y0040129D01*
X0074731Y0039813D01*
X0074856Y0039020D01*
X0075104Y0038257D01*
X0075469Y0037541D01*
X0075941Y0036892D01*
X0076508Y0036324D01*
X0077158Y0035853D01*
X0077873Y0035488D01*
X0078636Y0035240D01*
X0079429Y0035114D01*
X0079745Y0035114D01*
X0079745Y0040129D01*
X0079917Y0040129D01*
X0079917Y0040300D01*
X0079745Y0040300D01*
X0079745Y0045314D01*
X0079745Y0043201D02*
X0079917Y0043201D01*
X0079917Y0041602D02*
X0079745Y0041602D01*
X0079917Y0040129D02*
X0084931Y0040129D01*
X0084931Y0039813D01*
X0084805Y0039020D01*
X0084557Y0038257D01*
X0084193Y0037541D01*
X0083721Y0036892D01*
X0083153Y0036324D01*
X0082504Y0035853D01*
X0081788Y0035488D01*
X0081025Y0035240D01*
X0080232Y0035114D01*
X0079917Y0035114D01*
X0079917Y0040129D01*
X0079917Y0040004D02*
X0079745Y0040004D01*
X0079745Y0038405D02*
X0079917Y0038405D01*
X0079917Y0036807D02*
X0079745Y0036807D01*
X0079745Y0035208D02*
X0079917Y0035208D01*
X0080824Y0035208D02*
X0092617Y0035208D01*
X0089806Y0036807D02*
X0083635Y0036807D01*
X0084605Y0038405D02*
X0088836Y0038405D01*
X0088510Y0040004D02*
X0084931Y0040004D01*
X0084742Y0041602D02*
X0088699Y0041602D01*
X0089476Y0043201D02*
X0083965Y0043201D01*
X0077595Y0044799D02*
X0069527Y0044799D01*
X0070984Y0043201D02*
X0075696Y0043201D01*
X0074919Y0041602D02*
X0071646Y0041602D01*
X0071751Y0040004D02*
X0074731Y0040004D01*
X0075056Y0038405D02*
X0071471Y0038405D01*
X0070704Y0036807D02*
X0076026Y0036807D01*
X0078838Y0035208D02*
X0068860Y0035208D01*
X0063243Y0035208D02*
X0062883Y0035208D01*
X0061398Y0036807D02*
X0059772Y0036807D01*
X0052115Y0043201D02*
X0026292Y0043201D01*
X0026370Y0043278D02*
X0026975Y0044739D01*
X0026975Y0046320D01*
X0026370Y0047781D01*
X0025252Y0048899D01*
X0023791Y0049504D01*
X0022209Y0049504D01*
X0020748Y0048899D01*
X0019630Y0047781D01*
X0019025Y0046320D01*
X0019025Y0044739D01*
X0019630Y0043278D01*
X0020748Y0042160D01*
X0022209Y0041555D01*
X0023791Y0041555D01*
X0025252Y0042160D01*
X0026370Y0043278D01*
X0026975Y0044799D02*
X0054339Y0044799D01*
X0055937Y0046398D02*
X0026943Y0046398D01*
X0026154Y0047996D02*
X0057536Y0047996D01*
X0059134Y0049595D02*
X0017900Y0049595D01*
X0017900Y0051193D02*
X0060733Y0051193D01*
X0062300Y0052792D02*
X0017900Y0052792D01*
X0017900Y0054390D02*
X0020329Y0054390D01*
X0020748Y0053971D02*
X0022209Y0053366D01*
X0023791Y0053366D01*
X0025252Y0053971D01*
X0026370Y0055089D01*
X0026975Y0056550D01*
X0026975Y0058131D01*
X0026370Y0059592D01*
X0025252Y0060710D01*
X0023791Y0061315D01*
X0022209Y0061315D01*
X0020748Y0060710D01*
X0019630Y0059592D01*
X0019025Y0058131D01*
X0019025Y0056550D01*
X0019630Y0055089D01*
X0020748Y0053971D01*
X0019258Y0055989D02*
X0017900Y0055989D01*
X0017900Y0057587D02*
X0019025Y0057587D01*
X0019462Y0059186D02*
X0017900Y0059186D01*
X0017900Y0060784D02*
X0020928Y0060784D01*
X0017900Y0062383D02*
X0062300Y0062383D01*
X0062300Y0060784D02*
X0025072Y0060784D01*
X0026538Y0059186D02*
X0062300Y0059186D01*
X0062300Y0057587D02*
X0026975Y0057587D01*
X0026742Y0055989D02*
X0062300Y0055989D01*
X0062300Y0054390D02*
X0025671Y0054390D01*
X0019846Y0047996D02*
X0017900Y0047996D01*
X0017900Y0046398D02*
X0019057Y0046398D01*
X0019025Y0044799D02*
X0017900Y0044799D01*
X0017900Y0043201D02*
X0019708Y0043201D01*
X0017900Y0041602D02*
X0022095Y0041602D01*
X0023905Y0041602D02*
X0050517Y0041602D01*
X0049800Y0040004D02*
X0017900Y0040004D01*
X0017900Y0038405D02*
X0049800Y0038405D01*
X0049800Y0036807D02*
X0017900Y0036807D01*
X0017900Y0035208D02*
X0049800Y0035208D01*
X0049800Y0033610D02*
X0017900Y0033610D01*
X0017900Y0032011D02*
X0049800Y0032011D01*
X0049800Y0030413D02*
X0017900Y0030413D01*
X0017900Y0028814D02*
X0025583Y0028814D01*
X0025572Y0028810D02*
X0023125Y0026363D01*
X0021801Y0023165D01*
X0021801Y0019705D01*
X0023125Y0016507D01*
X0025572Y0014060D01*
X0028770Y0012736D01*
X0032230Y0012736D01*
X0035428Y0014060D01*
X0037875Y0016507D01*
X0039199Y0019705D01*
X0039199Y0023165D01*
X0037875Y0026363D01*
X0035428Y0028810D01*
X0032230Y0030134D01*
X0028770Y0030134D01*
X0025572Y0028810D01*
X0023978Y0027216D02*
X0017900Y0027216D01*
X0017900Y0025617D02*
X0022816Y0025617D01*
X0022154Y0024019D02*
X0017900Y0024019D01*
X0017900Y0022420D02*
X0021801Y0022420D01*
X0021801Y0020822D02*
X0017900Y0020822D01*
X0017900Y0019223D02*
X0022000Y0019223D01*
X0022662Y0017625D02*
X0017900Y0017625D01*
X0017900Y0016026D02*
X0023606Y0016026D01*
X0025205Y0014427D02*
X0017900Y0014427D01*
X0017900Y0012829D02*
X0028544Y0012829D01*
X0032456Y0012829D02*
X0058955Y0012829D01*
X0057357Y0014427D02*
X0035795Y0014427D01*
X0037394Y0016026D02*
X0055758Y0016026D01*
X0054160Y0017625D02*
X0038338Y0017625D01*
X0039000Y0019223D02*
X0052561Y0019223D01*
X0050963Y0020822D02*
X0039199Y0020822D01*
X0039199Y0022420D02*
X0049905Y0022420D01*
X0049800Y0024019D02*
X0038846Y0024019D01*
X0038184Y0025617D02*
X0049800Y0025617D01*
X0049800Y0027216D02*
X0037022Y0027216D01*
X0035417Y0028814D02*
X0049800Y0028814D01*
X0065500Y0028310D02*
X0065187Y0018310D01*
X0068468Y0020822D02*
X0071598Y0020822D01*
X0068895Y0022420D02*
X0068517Y0022420D01*
X0060554Y0011230D02*
X0017900Y0011230D01*
X0017900Y0009632D02*
X0183100Y0009632D01*
X0139875Y0018310D02*
X0134250Y0023935D01*
X0134250Y0030185D01*
X0127687Y0036435D01*
X0127687Y0042060D01*
X0118935Y0030413D02*
X0118363Y0030413D01*
X0116956Y0032011D02*
X0115712Y0032011D01*
X0112998Y0035208D02*
X0110198Y0035208D01*
X0110196Y0030413D02*
X0104583Y0030413D01*
X0105684Y0028814D02*
X0109095Y0028814D01*
X0108580Y0027216D02*
X0106200Y0027216D01*
X0106200Y0025617D02*
X0108580Y0025617D01*
X0109111Y0024019D02*
X0105669Y0024019D01*
X0104546Y0022420D02*
X0110233Y0022420D01*
X0115867Y0016026D02*
X0122866Y0016026D01*
X0125187Y0018310D02*
X0122375Y0022685D01*
X0125187Y0018310D02*
X0127062Y0018310D01*
X0130208Y0020822D02*
X0132838Y0020822D01*
X0134436Y0019223D02*
X0131014Y0019223D01*
X0131062Y0017625D02*
X0135875Y0017625D01*
X0136502Y0016026D02*
X0130435Y0016026D01*
X0137450Y0030413D02*
X0137755Y0030413D01*
X0151050Y0055989D02*
X0117956Y0055989D01*
X0119637Y0057587D02*
X0151050Y0057587D01*
X0151050Y0059186D02*
X0120125Y0059186D01*
X0119947Y0060784D02*
X0151050Y0060784D01*
X0151050Y0065580D02*
X0092443Y0065580D01*
X0090845Y0067178D02*
X0151050Y0067178D01*
X0151050Y0068777D02*
X0089246Y0068777D01*
X0087762Y0070375D02*
X0151050Y0070375D01*
X0151050Y0071974D02*
X0087762Y0071974D01*
X0087762Y0073572D02*
X0151050Y0073572D01*
X0151050Y0075171D02*
X0087762Y0075171D01*
X0087513Y0076769D02*
X0151050Y0076769D01*
X0151050Y0078368D02*
X0086317Y0078368D01*
X0085008Y0079966D02*
X0151050Y0079966D01*
X0151050Y0081565D02*
X0081107Y0081565D01*
X0079444Y0083163D02*
X0151050Y0083163D01*
X0151050Y0084762D02*
X0077782Y0084762D01*
X0076119Y0086361D02*
X0151050Y0086361D01*
X0151050Y0087959D02*
X0074457Y0087959D01*
X0072794Y0089558D02*
X0087232Y0089558D01*
X0090018Y0089558D02*
X0094732Y0089558D01*
X0092688Y0091156D02*
X0092062Y0091156D01*
X0088625Y0093310D02*
X0088625Y0122685D01*
X0085425Y0115134D02*
X0066825Y0115134D01*
X0066825Y0116732D02*
X0071125Y0116732D01*
X0071125Y0118331D02*
X0066825Y0118331D01*
X0067368Y0119929D02*
X0071125Y0119929D01*
X0071125Y0121528D02*
X0069076Y0121528D01*
X0070785Y0123126D02*
X0071125Y0123126D01*
X0074596Y0123126D02*
X0122375Y0123126D01*
X0122375Y0121528D02*
X0074581Y0121528D01*
X0074566Y0119929D02*
X0102814Y0119929D01*
X0096208Y0115134D02*
X0151050Y0115134D01*
X0151050Y0116732D02*
X0126125Y0116732D01*
X0126125Y0118331D02*
X0151050Y0118331D01*
X0151050Y0119929D02*
X0126125Y0119929D01*
X0126125Y0121528D02*
X0151050Y0121528D01*
X0151050Y0123126D02*
X0126125Y0123126D01*
X0126125Y0124725D02*
X0151050Y0124725D01*
X0149440Y0126323D02*
X0126125Y0126323D01*
X0126125Y0127922D02*
X0147560Y0127922D01*
X0145679Y0129520D02*
X0126125Y0129520D01*
X0126125Y0131119D02*
X0144800Y0131119D01*
X0144800Y0132717D02*
X0126125Y0132717D01*
X0144800Y0132717D01*
X0144800Y0134316D02*
X0126125Y0134316D01*
X0144800Y0134316D01*
X0144800Y0135914D02*
X0126125Y0135914D01*
X0126125Y0137513D02*
X0144800Y0137513D01*
X0144800Y0139111D02*
X0126125Y0139111D01*
X0126125Y0140710D02*
X0144800Y0140710D01*
X0144800Y0142308D02*
X0126125Y0142308D01*
X0126125Y0143907D02*
X0144800Y0143907D01*
X0144800Y0145505D02*
X0126125Y0145505D01*
X0126125Y0147104D02*
X0136674Y0147104D01*
X0135534Y0148702D02*
X0126125Y0148702D01*
X0126125Y0150301D02*
X0134112Y0150301D01*
X0132194Y0151899D02*
X0126125Y0151899D01*
X0122375Y0151899D02*
X0074865Y0151899D01*
X0074871Y0152530D02*
X0075338Y0152997D01*
X0078625Y0152997D01*
X0122375Y0152685D01*
X0122375Y0120185D01*
X0074563Y0119560D01*
X0074623Y0126086D01*
X0075578Y0126481D01*
X0076704Y0127607D01*
X0077312Y0129077D01*
X0077312Y0130668D01*
X0076704Y0132138D01*
X0075578Y0133263D01*
X0074694Y0133630D01*
X0074871Y0152530D01*
X0074850Y0150301D02*
X0122375Y0150301D01*
X0122375Y0148702D02*
X0074835Y0148702D01*
X0074820Y0147104D02*
X0122375Y0147104D01*
X0122375Y0145505D02*
X0074805Y0145505D01*
X0074790Y0143907D02*
X0122375Y0143907D01*
X0122375Y0142308D02*
X0074775Y0142308D01*
X0074760Y0140710D02*
X0122375Y0140710D01*
X0122375Y0139111D02*
X0074745Y0139111D01*
X0074730Y0137513D02*
X0122375Y0137513D01*
X0122375Y0135914D02*
X0074715Y0135914D01*
X0074700Y0134316D02*
X0122375Y0134316D01*
X0122375Y0132717D02*
X0076124Y0132717D01*
X0077126Y0131119D02*
X0122375Y0131119D01*
X0122375Y0129520D02*
X0077312Y0129520D01*
X0076834Y0127922D02*
X0122375Y0127922D01*
X0122375Y0126323D02*
X0075197Y0126323D01*
X0074611Y0124725D02*
X0122375Y0124725D01*
X0143625Y0138935D02*
X0143625Y0155185D01*
X0141594Y0153498D02*
X0145656Y0153498D01*
X0144381Y0151899D02*
X0142869Y0151899D01*
X0143250Y0150301D02*
X0144000Y0150301D01*
X0144284Y0148702D02*
X0142965Y0148702D01*
X0141826Y0147104D02*
X0144800Y0147104D01*
X0148000Y0150185D02*
X0148000Y0131747D01*
X0154250Y0126435D01*
X0152375Y0136435D02*
X0183700Y0136435D01*
X0183700Y0174635D01*
X0152375Y0174635D01*
X0152375Y0136435D01*
X0152375Y0137513D02*
X0183700Y0137513D01*
X0183700Y0139111D02*
X0152375Y0139111D01*
X0152375Y0140710D02*
X0183700Y0140710D01*
X0183700Y0142308D02*
X0152375Y0142308D01*
X0152375Y0143907D02*
X0183700Y0143907D01*
X0183700Y0145505D02*
X0152375Y0145505D01*
X0152375Y0147104D02*
X0183700Y0147104D01*
X0183700Y0148702D02*
X0152375Y0148702D01*
X0152375Y0150301D02*
X0183700Y0150301D01*
X0183700Y0151899D02*
X0152375Y0151899D01*
X0152375Y0153498D02*
X0168497Y0153498D01*
X0168889Y0153336D02*
X0165912Y0154569D01*
X0163634Y0156847D01*
X0162401Y0159824D01*
X0162401Y0163046D01*
X0163634Y0166023D01*
X0165912Y0168301D01*
X0168889Y0169534D01*
X0172111Y0169534D01*
X0175088Y0168301D01*
X0177366Y0166023D01*
X0178599Y0163046D01*
X0178599Y0159824D01*
X0177366Y0156847D01*
X0175088Y0154569D01*
X0172111Y0153336D01*
X0168889Y0153336D01*
X0172503Y0153498D02*
X0183700Y0153498D01*
X0183700Y0155096D02*
X0175616Y0155096D01*
X0177214Y0156695D02*
X0183700Y0156695D01*
X0183700Y0158294D02*
X0177965Y0158294D01*
X0178599Y0159892D02*
X0183700Y0159892D01*
X0183700Y0161491D02*
X0178599Y0161491D01*
X0178581Y0163089D02*
X0183700Y0163089D01*
X0183700Y0164688D02*
X0177919Y0164688D01*
X0177103Y0166286D02*
X0183700Y0166286D01*
X0183700Y0167885D02*
X0175504Y0167885D01*
X0172234Y0169483D02*
X0183700Y0169483D01*
X0183700Y0171082D02*
X0152375Y0171082D01*
X0152375Y0172680D02*
X0183700Y0172680D01*
X0183700Y0174279D02*
X0152375Y0174279D01*
X0148653Y0172680D02*
X0059562Y0172680D01*
X0059562Y0171082D02*
X0148665Y0171082D01*
X0148676Y0169483D02*
X0059562Y0169483D01*
X0059562Y0167885D02*
X0148687Y0167885D01*
X0148698Y0166286D02*
X0059562Y0166286D01*
X0059562Y0164688D02*
X0148709Y0164688D01*
X0148720Y0163089D02*
X0059562Y0163089D01*
X0059562Y0161491D02*
X0148732Y0161491D01*
X0148743Y0159892D02*
X0059562Y0159892D01*
X0059562Y0158294D02*
X0071583Y0158294D01*
X0069985Y0156695D02*
X0059562Y0156695D01*
X0059562Y0155096D02*
X0068386Y0155096D01*
X0067373Y0153498D02*
X0059562Y0153498D01*
X0059562Y0151899D02*
X0067300Y0151899D01*
X0067300Y0150301D02*
X0059562Y0150301D01*
X0059562Y0148702D02*
X0067300Y0148702D01*
X0067300Y0147104D02*
X0059562Y0147104D01*
X0055500Y0147104D02*
X0017300Y0147104D01*
X0017300Y0148702D02*
X0055500Y0148702D01*
X0055500Y0150301D02*
X0017300Y0150301D01*
X0017300Y0151899D02*
X0055500Y0151899D01*
X0055500Y0153498D02*
X0032503Y0153498D01*
X0032111Y0153336D02*
X0035088Y0154569D01*
X0037366Y0156847D01*
X0038599Y0159824D01*
X0038599Y0163046D01*
X0037366Y0166023D01*
X0035088Y0168301D01*
X0032111Y0169534D01*
X0028889Y0169534D01*
X0025912Y0168301D01*
X0023634Y0166023D01*
X0022401Y0163046D01*
X0022401Y0159824D01*
X0023634Y0156847D01*
X0025912Y0154569D01*
X0028889Y0153336D01*
X0032111Y0153336D01*
X0028497Y0153498D02*
X0017300Y0153498D01*
X0017300Y0155096D02*
X0025384Y0155096D01*
X0023786Y0156695D02*
X0017300Y0156695D01*
X0017300Y0158294D02*
X0023035Y0158294D01*
X0022401Y0159892D02*
X0017300Y0159892D01*
X0017300Y0161491D02*
X0022401Y0161491D01*
X0022419Y0163089D02*
X0017300Y0163089D01*
X0017300Y0164688D02*
X0023081Y0164688D01*
X0023897Y0166286D02*
X0017300Y0166286D01*
X0017300Y0167885D02*
X0025496Y0167885D01*
X0028766Y0169483D02*
X0017300Y0169483D01*
X0017300Y0171082D02*
X0055500Y0171082D01*
X0055500Y0172680D02*
X0017300Y0172680D01*
X0017300Y0174279D02*
X0055500Y0174279D01*
X0055500Y0174635D02*
X0055500Y0136435D01*
X0017300Y0136435D01*
X0017300Y0174635D01*
X0055500Y0174635D01*
X0055500Y0169483D02*
X0032234Y0169483D01*
X0035504Y0167885D02*
X0055500Y0167885D01*
X0055500Y0166286D02*
X0037103Y0166286D01*
X0037919Y0164688D02*
X0055500Y0164688D01*
X0055500Y0163089D02*
X0038581Y0163089D01*
X0038599Y0161491D02*
X0055500Y0161491D01*
X0055500Y0159892D02*
X0038599Y0159892D01*
X0037965Y0158294D02*
X0055500Y0158294D01*
X0055500Y0156695D02*
X0037214Y0156695D01*
X0035616Y0155096D02*
X0055500Y0155096D01*
X0055500Y0145505D02*
X0017300Y0145505D01*
X0017300Y0143907D02*
X0055500Y0143907D01*
X0055500Y0142308D02*
X0017300Y0142308D01*
X0017300Y0140710D02*
X0055500Y0140710D01*
X0055500Y0139111D02*
X0017300Y0139111D01*
X0017300Y0137513D02*
X0055500Y0137513D01*
X0066125Y0128935D02*
X0066125Y0127685D01*
X0060500Y0122060D01*
X0063625Y0120810D02*
X0073313Y0129872D01*
X0070500Y0133310D02*
X0070500Y0152685D01*
X0074250Y0156435D01*
X0131750Y0156435D01*
X0139250Y0150185D01*
X0138355Y0155096D02*
X0148776Y0155096D01*
X0148765Y0156695D02*
X0136436Y0156695D01*
X0134518Y0158294D02*
X0148754Y0158294D01*
X0152375Y0158294D02*
X0163035Y0158294D01*
X0162401Y0159892D02*
X0152375Y0159892D01*
X0152375Y0161491D02*
X0162401Y0161491D01*
X0162419Y0163089D02*
X0152375Y0163089D01*
X0152375Y0164688D02*
X0163081Y0164688D01*
X0163897Y0166286D02*
X0152375Y0166286D01*
X0152375Y0167885D02*
X0165496Y0167885D01*
X0168766Y0169483D02*
X0152375Y0169483D01*
X0152375Y0156695D02*
X0163786Y0156695D01*
X0165384Y0155096D02*
X0152375Y0155096D01*
X0151050Y0113535D02*
X0097343Y0113535D01*
X0097625Y0111937D02*
X0151050Y0111937D01*
X0151050Y0110338D02*
X0097241Y0110338D01*
X0096825Y0108740D02*
X0151050Y0108740D01*
X0151050Y0107141D02*
X0096825Y0107141D01*
X0096825Y0105543D02*
X0151050Y0105543D01*
X0151050Y0103944D02*
X0096825Y0103944D01*
X0096825Y0102346D02*
X0151050Y0102346D01*
X0151050Y0100747D02*
X0096825Y0100747D01*
X0096825Y0099149D02*
X0151050Y0099149D01*
X0151050Y0097550D02*
X0096825Y0097550D01*
X0099140Y0095952D02*
X0151050Y0095952D01*
X0151050Y0094353D02*
X0100022Y0094353D01*
X0100125Y0092755D02*
X0151050Y0092755D01*
X0151050Y0091156D02*
X0099562Y0091156D01*
X0097518Y0089558D02*
X0151050Y0089558D01*
X0157450Y0092755D02*
X0169315Y0092755D01*
X0167337Y0094353D02*
X0157450Y0094353D01*
X0157450Y0095952D02*
X0166653Y0095952D01*
X0166560Y0097550D02*
X0157450Y0097550D01*
X0157450Y0099149D02*
X0166990Y0099149D01*
X0168150Y0100747D02*
X0157450Y0100747D01*
X0096125Y0093310D02*
X0093625Y0095185D01*
X0093625Y0112060D01*
X0085425Y0111937D02*
X0066825Y0111937D01*
X0066825Y0113535D02*
X0085425Y0113535D01*
X0085425Y0110338D02*
X0066825Y0110338D01*
X0066825Y0108740D02*
X0085425Y0108740D01*
X0085425Y0107141D02*
X0066825Y0107141D01*
X0066825Y0105543D02*
X0085425Y0105543D01*
X0085425Y0103944D02*
X0066825Y0103944D01*
X0066825Y0102346D02*
X0085425Y0102346D01*
X0085425Y0100747D02*
X0066825Y0100747D01*
X0066825Y0099149D02*
X0085425Y0099149D01*
X0085425Y0097550D02*
X0066825Y0097550D01*
X0066825Y0095952D02*
X0085425Y0095952D01*
X0084728Y0094353D02*
X0067807Y0094353D01*
X0069469Y0092755D02*
X0084625Y0092755D01*
X0085188Y0091156D02*
X0071132Y0091156D01*
X0063625Y0093935D02*
X0079875Y0078310D01*
X0082688Y0077685D01*
X0084563Y0075497D01*
X0063625Y0093935D02*
X0063625Y0120810D01*
X0066125Y0128935D02*
X0070500Y0133310D01*
X0027948Y0079966D02*
X0025239Y0079966D01*
X0021386Y0079966D02*
X0017900Y0079966D01*
X0017900Y0078368D02*
X0019784Y0078368D01*
X0019313Y0076769D02*
X0017900Y0076769D01*
X0017900Y0075171D02*
X0019506Y0075171D01*
X0020486Y0073572D02*
X0017900Y0073572D01*
X0017900Y0071974D02*
X0021890Y0071974D01*
X0023317Y0070375D02*
X0017900Y0070375D01*
X0017900Y0068777D02*
X0024744Y0068777D01*
X0026171Y0067178D02*
X0017900Y0067178D01*
X0017900Y0065580D02*
X0027599Y0065580D01*
X0029026Y0063981D02*
X0017900Y0063981D01*
X0023312Y0075185D02*
X0031125Y0066435D01*
X0023312Y0075185D02*
X0023312Y0076435D01*
X0090804Y0030413D02*
X0096417Y0030413D01*
X0095316Y0028814D02*
X0091905Y0028814D01*
X0092420Y0027216D02*
X0094800Y0027216D01*
X0094800Y0025617D02*
X0092420Y0025617D01*
X0091889Y0024019D02*
X0095331Y0024019D01*
X0096454Y0022420D02*
X0090767Y0022420D01*
D13*
X0115500Y0020185D03*
X0127062Y0018310D03*
X0139875Y0018310D03*
X0154250Y0027060D03*
X0116125Y0059560D03*
X0079875Y0073310D03*
X0071750Y0064560D03*
X0088625Y0093310D03*
X0096125Y0093310D03*
X0093625Y0112060D03*
X0088625Y0122685D03*
X0073313Y0129872D03*
X0042688Y0171435D03*
X0023000Y0094560D03*
X0023312Y0076435D03*
X0029875Y0076435D03*
X0045500Y0026435D03*
X0065187Y0018310D03*
X0139250Y0150185D03*
X0148000Y0150185D03*
X0159875Y0172060D03*
M02*
